<?xml version="1.0" standalone="no"?><!DOCTYPE svg PUBLIC "-//W3C//DTD SVG 1.1//EN" "http://www.w3.org/Graphics/SVG/1.1/DTD/svg11.dtd" ><svg xmlns="http://www.w3.org/2000/svg"><metadata></metadata><defs><font id="FontForge 2.0 : AL Nevrada Personal Use Only : 4-10-2019" horiz-adv-x="1217"><font-face font-family="AL Nevrada Personal Use Only" font-weight="400" font-stretch="normal" units-per-em="1000" panose-1="2 0 5 3 0 0 0 0 0 0" ascent="1025" descent="-760" x-height="0" bbox="-12 -284 1195 785" underline-thickness="50" underline-position="-75" unicode-range="U+0041-007a" /><missing-glyph horiz-adv-x="364" d="M33 0 l0 600 l265 0 l0 -600 l-265 0 ZM66 33 l199 0 l0 534 l-199 0 l0 -534 Z" /><glyph glyph-name="A" unicode="a" d="M379 775 l17 0 l13 0 l266 -640 l12 -28 q26 -62 51 -78 q20 -13 50 -13 l0 -16 l-57 0 l-187 0 l-117 0 l0 16 q78 0 78 54 q-1 27 -17 65 l-42 101 l-253 0 l-38 -101 q-39 -105 48 -117 q11 -2 22 -2 l0 -16 l-225 0 l0 16 q93 2 138 119 l241 640 ZM313 555 l-114 -303 l241 0 l-127 303 Z" /><glyph glyph-name="B" unicode="b" d="M0 775 l90 0 l113 0 l54 0 l13 0 l6 0 q309 -1 310 -180 q0 -113 -120 -165 q-26 -12 -56 -19 q138 -13 187 -99 q21 -39 21 -89 q0 -124 -115 -184 q-77 -39 -184 -39 l-49 0 l-6 0 l-45 0 l-129 0 l-90 0 l0 16 q64 0 80 41 q10 26 10 78 l0 62 l0 381 l0 62 q0 81 -29 104 q-20 15 -61 15 l0 16 ZM270 759 l0 -347 l11 1 q59 0 97 64 q28 50 28 113 q0 83 -60 138 q-35 30 -66 31 l-10 0 ZM270 397 l0 -383 q81 0 131 78 q37 58 37 130 q0 107 -66 153 q-32 21 -71 22 l-31 0 Z" /><glyph glyph-name="C" unicode="c" d="M378 785 q49 0 110 -13 q10 -2 18 -4 q44 -9 45 -9 q16 2 16 16 l17 0 l24 -224 l-17 -2 q-41 170 -133 208 q-29 12 -63 12 q-84 0 -144 -111 q-54 -100 -61 -234 q-3 -50 2 -99 q15 -154 85 -248 q54 -69 118 -70 q104 0 156 108 q13 28 40 111 l17 -2 l-24 -224 l-17 0 q0 21 -30 14 q-5 -1 -14 -3 q-12 -3 -17 -4 q-72 -14 -100 -15 q-13 -1 -28 -1 q-158 0 -267 111 q-98 102 -110 249 q-3 36 0 73 q13 156 121 259 q107 101 256 102 Z" /><glyph glyph-name="D" unicode="d" d="M345 775 q128 0 219 -87 q106 -102 106 -275 q0 -191 -102 -309 q-91 -103 -223 -104 l-74 0 l-7 0 l-44 0 l-129 0 l-90 0 l0 16 q63 0 80 41 q10 26 10 78 l0 62 l0 381 l0 62 q0 81 -29 104 q-21 15 -61 15 l0 16 l90 0 l113 0 l57 0 l84 0 ZM271 758 l0 -742 q132 0 188 176 q30 96 31 220 q1 140 -70 251 q-64 88 -126 95 l-23 0 Z" /><glyph glyph-name="E" unicode="e" d="M592 775 l24 -224 l-16 -2 q-13 126 -49 166 q-44 43 -146 44 l-135 0 l0 -346 l66 0 q114 7 119 104 l16 0 l0 -104 l0 -16 l0 -105 l-16 0 q-2 104 -119 105 l-66 0 l0 -381 l135 0 q106 0 144 41 q36 39 50 162 q1 4 1 7 l16 -2 l-24 -224 l-187 0 l-135 0 l-51 0 l-129 0 l-90 0 l0 16 q64 0 80 41 q10 26 10 78 l0 62 l0 381 l0 62 q0 81 -29 104 q-20 15 -61 15 l0 16 l90 0 l113 0 l27 0 l40 0 l135 0 l187 0 Z" /><glyph glyph-name="F" unicode="f" d="M594 775 l24 -224 l-16 -2 q-14 126 -49 166 q-44 43 -146 44 l-137 0 l0 -119 l0 -31 l0 -31 l0 -165 l66 0 q114 7 119 104 l16 0 l0 -104 l0 -16 l0 -105 l-16 0 q-2 104 -119 105 l-66 0 l0 -200 l0 -62 q0 -90 43 -110 q19 -9 47 -9 l0 -16 l-90 0 l-180 0 l-90 0 l0 16 q64 0 80 41 q10 26 10 78 l0 62 l0 381 l0 62 q0 81 -29 104 q-20 15 -61 15 l0 16 l90 0 l142 0 l38 0 l137 0 l187 0 Z" /><glyph glyph-name="G" unicode="g" d="M379 785 q48 0 109 -13 q10 -2 19 -4 q44 -9 45 -9 q15 2 16 16 l16 0 l24 -224 l-16 -2 q-41 171 -134 208 q-30 12 -63 12 q-83 0 -144 -111 q-53 -100 -61 -234 q-3 -50 2 -99 q16 -158 94 -239 q50 -50 109 -51 q78 0 98 60 q5 14 5 29 l0 92 l0 61 q0 82 -29 104 q-20 15 -61 16 l0 16 l360 0 l0 -16 q-65 0 -82 -51 q-8 -26 -8 -69 l0 -53 l0 -8 l0 -216 l-16 0 q-8 24 -85 8 q-89 -18 -198 -18 q-14 0 -26 1 q-154 10 -254 125 q-86 99 -98 235 q-2 36 0 73 q13 156 121 259 q107 101 257 102 Z" /><glyph glyph-name="H" unicode="h" d="M90 775 l180 0 l90 0 l0 -16 q-65 0 -82 -51 q-8 -26 -8 -68 l0 -227 l262 0 l0 165 l0 62 q0 81 -29 104 q-20 15 -61 15 l0 16 l90 0 l180 0 l90 0 l0 -16 q-65 0 -82 -51 q-8 -26 -8 -68 l0 -505 q0 -90 43 -110 q19 -9 47 -9 l0 -16 l-360 0 l0 16 q64 0 80 41 q10 26 10 78 l0 61 l0 201 l-262 0 l0 -201 l0 -61 q0 -90 43 -110 q18 -9 47 -9 l0 -16 l-360 0 l0 16 q64 0 80 41 q10 26 10 78 l0 61 l0 382 l0 62 q0 81 -29 104 q-20 15 -61 15 l0 16 l90 0 Z" /><glyph glyph-name="I" unicode="i" d="M90 775 l180 0 l90 0 l0 -16 q-65 0 -82 -51 q-8 -26 -8 -68 l0 -62 l0 -381 l0 -62 q0 -90 43 -110 q19 -9 47 -9 l0 -16 l-360 0 l0 16 q63 0 80 41 q10 26 10 78 l0 62 l0 381 l0 62 q0 82 -29 104 q-21 15 -61 15 l0 16 l90 0 Z" /><glyph glyph-name="J" unicode="j" d="M271 775 l361 0 l0 -16 q-66 0 -82 -51 q-8 -26 -8 -68 l0 -62 l0 -196 q0 -114 -19 -178 q-61 -203 -292 -204 q-183 0 -222 120 q-12 39 -8 84 q8 77 75 100 q58 19 111 -13 q42 -26 49 -68 q-50 0 -71.5 -54.5 q-21.5 -54.5 3.5 -104.5 q25 -47 79 -48 q38 0 64 38 q26 38 35.5 91.5 q9.5 53.5 13.5 107.5 q4 54 3 91 l-1 38 l0 196 l0 62 q0 82 -29 104 q-21 15 -62 15 l0 16 Z" /><glyph glyph-name="K" unicode="k" d="M90 775 l180 0 l90 0 l0 -16 q-65 0 -82 -51 q-8 -26 -8 -68 l0 -316 l316 316 q80 80 40 108 q-16 11 -44 11 l0 16 l225 0 l0 -16 q-58 0 -116 -44 q-33 -26 -82 -75 l-113 -112 l176 -296 l82 -140 q35 -56 68 -69 q19 -7 44 -7 l0 -16 l-360 0 l0 16 q55 0 55 31 q-1 26 -38 88 l-156 264 l-97 -98 l0 -166 q0 -90 43 -110 q19 -9 47 -9 l0 -16 l-360 0 l0 16 q64 0 80 41 q10 26 10 78 l0 62 l0 381 l0 62 q0 82 -29 104 q-20 15 -61 15 l0 16 l90 0 Z" /><glyph glyph-name="L" unicode="l" d="M90 775 l180 0 l90 0 l0 -16 q-65 0 -82 -51 q-8 -26 -8 -68 l0 -62 l0 -381 l0 -62 l0 -119 l178 0 q105 0 143 41 q37 39 50 162 q1 4 1 7 l16 -2 l-23 -224 l-187 0 l-231 0 l-127 0 l-90 0 l0 16 q64 0 80 41 q10 26 10 78 l0 62 l0 381 l0 62 q0 82 -29 104 q-20 15 -61 15 l0 16 l90 0 Z" /><glyph glyph-name="M" unicode="m" d="M14 775 l251 0 l0 -1 l198 -516 l-91 -253 l-2 -5 l-249 648 l0 -513 q7 -114 104 -119 l0 -16 l-225 0 l0 16 q104 2 105 119 l0 513 q0 81 -41 101 q-20 10 -50 10 l0 16 ZM650 775 l270 0 l0 -16 q-63 0 -80 -41 q-10 -25 -10 -78 l0 -505 q0 -94 50 -113 q17 -6 40 -6 l0 -16 l-90 0 l-180 0 l-90 0 l0 16 q65 0 82 51 q8 26 8 68 l0 62 l0 381 l0 62 l0 87 l-2 -5 l-261 -722 l-17 0 l2 5 l259 717 l19 53 Z" /><glyph glyph-name="N" unicode="n" d="M14 775 l251 0 l9 0 l207 -299 l40 -58 l71 -102 l0 324 q-2 118 -105 119 l0 16 l225 0 l0 -16 q-96 0 -104 -103 q0 -8 0 -16 l0 -347 l0 -293 l-16 0 l-95 136 l-183 265 l-193 279 l0 -545 q7 -114 104 -119 l0 -16 l-104 0 l-16 0 l-105 0 l0 16 q104 2 105 119 l0 513 q-1 51 -15 76 l-6 10 q-23 24 -70 25 l0 16 Z" /><glyph glyph-name="O" unicode="o" d="M340 782 q143 0 241 -112 q98 -118 100 -282 q0 -166 -97 -279 q-96 -113 -238 -116 q-3 0 -6 0 q-143 0 -240 112 q-98 118 -100 283 q0 165 97 279 q95 112 237 115 q4 0 6 0 ZM340 766 q-61 0 -105 -106 q-49 -115 -49 -272 q0 -174 56 -291 q44 -87 98 -88 q62 1 106 106 q48 115 49 273 q0 173 -57 290 q-43 87 -98 88 Z" /><glyph glyph-name="P" unicode="p" d="M251 775 l150 0 q114 0 185 -68 q62 -61 63 -159 q0 -134 -105 -207 q-79 -55 -195 -55 l-79 0 l0 -89 l0 -62 q0 -90 43 -110 q19 -9 47 -9 l0 -16 l-90 0 l-180 0 l-90 0 l0 16 q64 0 80 41 q10 26 10 78 l0 62 l0 381 l0 62 q0 81 -29 104 q-20 15 -61 15 l0 16 l90 0 l161 0 ZM270 759 l0 -181 l0 -276 q108 3 165 108 q33 65 34 137 q0 110 -62 170 q-44 41 -109 42 l-28 0 Z" /><glyph glyph-name="Q" unicode="q" d="M340 782 q143 0 241 -112 q98 -118 100 -282 q0 -166 -97 -279 q-96 -113 -238 -116 q-2 0 -3 0 q12 -6 35 -17 q84 -42 130 -45 q5 -1 11 -1 q54 1 79 24 l11 -7 q-14 -74 -66 -104 q-27 -15 -61 -16 q-40 0 -112 36 q-84 41 -135 47 q-15 1 -29 1 q-67 0 -120 -38 l-12 11 q29 79 91 115 q26 14 55 18 q-118 50 -178 176 q-42 90 -42 195 q0 165 97 279 q95 112 237 115 q4 0 6 0 ZM340 766 q-61 0 -105 -106 q-49 -115 -49 -272 q0 -174 56 -289 q43 -86 98 -87 q62 0 107 106 q47 113 48 270 q0 173 -57 290 q-43 87 -98 88 Z" /><glyph glyph-name="R" unicode="r" d="M251 775 l150 0 q114 0 185 -68 q62 -61 63 -159 q-2 -135 -107 -208 l126 -213 q42 -69 60 -85 q28 -25 72 -26 l1 -16 l-58 0 l-105 0 q-86 0 -123 43 q-11 14 -29 44 l-118 199 q-10 0 -19 0 l-79 0 l0 -89 l0 -62 q0 -90 43 -110 q19 -9 47 -9 l0 -16 l-90 0 l-180 0 l-90 0 l0 16 q64 0 80 41 q10 26 10 78 l0 62 l0 381 l0 62 q0 81 -29 104 q-20 15 -61 15 l0 16 l90 0 l161 0 ZM270 759 l0 -181 l0 -276 q108 3 165 108 q33 65 34 137 q0 110 -62 170 q-44 41 -109 42 l-28 0 Z" /><glyph glyph-name="S" unicode="s" d="M373 785 q37 0 109 -17 q43 -10 50 -9 q13 4 14 16 l16 0 l21 -224 l-16 -6 q-15 163 -106 206 q-39 17 -90 18 q-68 0 -103 -50 q-21 -30 -21 -68 q0 -69 87 -122 q16 -10 125 -63 q118 -59 162 -120 q38 -55 39 -126 q0 -108 -94 -172 q-85 -56 -221 -57 q-177 0 -276 92 q-80 75 -67 169 q1 12 4 22 q20 76 91 94 q18 4 35 5 q72 0 118 -51 q49 -54 29 -130 q-50 24 -85 -23 q-19 -28 -19 -57 q1 -48 49 -79 q41 -25 104 -26 q93 0 147 69 q30 38 30 75 q0 68 -85 121 q-13 9 -122 65 q-116 61 -159 124 q-39 56 -39 129 q0 124 120 171 q63 24 153 24 Z" /><glyph glyph-name="T" unicode="t" d="M24 775 l187 0 l42 0 l45 0 l135 0 l41 0 l187 0 l24 -224 l-17 -2 q-13 126 -48 166 q-44 43 -146 44 l-41 0 l0 -562 l0 -62 q0 -90 43 -110 q19 -9 47 -9 l0 -16 l-90 0 l-180 0 l-90 0 l0 16 q64 0 80 41 q10 26 10 78 l0 62 l0 562 l-42 0 q-106 0 -144 -41 q-37 -39 -50 -162 q-1 -4 -1 -7 l-16 2 l24 224 Z" /><glyph glyph-name="U" unicode="u" d="M528 775 l226 0 l0 -16 q-96 0 -105 -101 q-1 -9 -1 -18 l0 -266 q0 -198 -90 -304 q-68 -78 -166 -79 q-96 1 -153 31 q-148 83 -149 360 l0 196 l0 62 q0 81 -29 104 q-20 15 -61 15 l0 16 l90 0 l180 0 l90 0 l0 -16 q-65 0 -82 -51 q-8 -26 -8 -68 l0 -62 l0 -166 q1 -164 30 -247 q15 -37 36 -63 q47 -56 109 -57 q62 2 107 57 q80 102 80 273 l0 265 q-1 118 -104 119 l0 16 Z" /><glyph glyph-name="V" unicode="v" d="M513 775 l225 0 l0 -16 q-63 0 -98 -47 q-19 -27 -37 -72 l-244 -640 l-17 0 l250 656 q17 67 -33 93 q-20 10 -46 10 l0 16 ZM342 0 l-249 640 q-35 77 -44 90 q-21 28 -49 29 l0 16 l360 0 l0 -16 q-119 0 -75 -117 q1 -2 1 -2 l151 -389 l-95 -251 Z" /><glyph glyph-name="W" unicode="w" d="M0 775 l360 0 l0 -16 q-119 0 -75 -117 q1 -1 1 -2 l151 -389 l-95 -251 l-249 640 q-35 77 -44 90 q-21 28 -49 29 l0 16 ZM342 0 l226 592 l-19 48 q-35 77 -44 90 q-21 28 -49 29 l0 16 l360 0 l0 -16 q-119 0 -75 -117 q1 -1 1 -2 l151 -389 l-95 -251 l-222 569 l-217 -569 l-17 0 ZM798 0 l250 656 q17 67 -33 93 q-20 10 -46 10 l0 16 l225 0 l0 -16 q-63 0 -98 -47 q-19 -27 -37 -72 l-244 -640 l-17 0 Z" /><glyph glyph-name="X" unicode="x" d="M0 775 l360 0 l0 -16 q-59 0 -57 -48 q1 -31 26 -71 l114 -186 l124 186 q45 68 -1 102 q-24 17 -61 17 l0 16 l225 0 l0 -16 q-56 0 -112 -75 q-13 -17 -31 -44 l-134 -202 l186 -303 q51 -83 75 -102 q21 -16 43 -17 l0 -16 l-35 0 l-211 0 l-115 0 l0 16 q53 0 56 42 q2 31 -24 77 l-107 173 l-114 -173 q-63 -94 -7 -114 q13 -5 31 -5 l0 -16 l-225 0 l0 16 q63 0 134 65 q24 22 42 47 l130 195 l-194 317 q-2 3 -6 9 q-7 11 -10 16 q-43 71 -71 86 q-15 8 -31 8 l0 16 Z" /><glyph glyph-name="Y" unicode="y" d="M0 775 l337 0 l0 -16 q-97 -2 -36 -119 l43 -81 l103 -193 l12 -22 l125 296 q34 80 -15 108 q-18 11 -45 11 l0 16 l226 0 l0 -16 q-98 -2 -149 -119 l-133 -315 l0 -190 q0 -90 43 -110 q19 -9 47 -9 l0 -16 l-90 0 l-180 0 l-90 0 l0 16 q64 0 80 41 q10 26 10 78 l0 190 l-141 266 l-26 49 q-51 84 -79 104 q-21 14 -42 15 l0 16 Z" /><glyph glyph-name="Z" unicode="z" d="M450 775 l200 0 l0 -16 l-8 -13 l-364 -615 l-69 -115 l223 0 q106 0 144 41 q36 39 50 162 q0 4 1 7 l16 -2 l-24 -224 l-187 0 l-232 0 l-200 0 l0 16 l8 13 l77 131 l62 104 l294 495 l-181 0 q-106 0 -144 -41 q-36 -39 -50 -162 q0 -4 -1 -7 l-16 2 l24 224 l187 0 l190 0 Z" /><glyph glyph-name="a" unicode="a" d="M221 500 q170 0 224 -69 q28 -37 40 -112 l2 -15 l17 -152 q7 -43 19 -69.5 q12 -26.5 24.5 -34 q12.5 -7.5 24.5 -9 q12 -1.5 19 2.5 l7 4 l0 -12 q-7 -19 -65 -34 q-95 -24 -154 13 q-26 17 -39 43 q-26 -32 -82 -51 q-38 -13 -81 -13 q-118 0 -159 65 q-18 28 -18 65 q0 95 92 126 q22 7 111 21 q76 13 92 41 q8 16 6 38 l-2 11 q-9 64 -17 82 q-20 42 -62 43 q-75 -2 -77 -50 q-1 -38 41 -43 q8 -1 16 -1 q14 -54 -31 -84 q-40 -27 -80 -9 q-30 13 -39 48 q-17 64 33 111 q49 44 138 44 ZM307 296 q-7 -16 -50 -40 q-55 -32 -72 -60 q-14 -26 -14 -57 q0 -69 55 -93 q44 -19 79 4 q28 18 24 53 l-22 193 Z" /><glyph glyph-name="b" unicode="b" d="M238 775 l16 0 l0 -320 q53 40 117 45 q6 0 12 0 q6 0 11 0 q99 -5 164 -88 q52 -67 57 -153 q7 -114 -66 -195 q-61 -67 -147 -72 q-101 -6 -174 72 l-138 -64 l-16 0 l0 535 q0 110 -49 130 q-12 4 -25 5 l0 17 q39 0 77.5 9 q38.5 9 66.5 22 q28 13 50 26 q22 13 33 22 l11 9 ZM305 460 q-5 0 -10 -1 q-52 -14 -39 -139 q6 -50 21 -107 q40 -148 96 -191 q23 -17 43 -12 q53 15 40 139 q-6 50 -21 107 q-40 149 -97 192 q-17 12 -33 12 Z" /><glyph glyph-name="c" unicode="c" d="M276 500 q117 0 167 -66 q45 -61 9 -135 q-21 -42 -71 -43 q-49 0 -71 37 q-16 27 -7 63 q52 0 64 39 q11 36 -20 64 q-28 24 -73 25 q-53 0 -78 -73 q-23 -67 -10 -159 q16 -101 87 -152 q69 -50 141 -15 q47 23 81 81 l11 -12 q-45 -113 -158 -149 q-105 -34 -206 15 q-102 48 -132 153 q-6 24 -9 47 q-12 134 73 212 q74 68 202 68 Z" /><glyph glyph-name="d" unicode="d" d="M526 775 l16 0 l0 -181 l0 -433 q0 -127 54 -123 q13 1 24 8 l0 -17 q-24 -22 -86 -33 q-109 -19 -154 45 q-2 4 -4 7 q-58 -52 -131 -56 q-6 -1 -12 -1 q-6 0 -11 1 q-99 5 -165 88 q-51 66 -56 152 q-7 114 65 195 q62 67 148 73 q82 4 148 -49 l0 33 l0 51 q0 110 -48 130 q-12 4 -26 6 l0 16 q39 0 78 9 q39 9 66.5 22 q27.5 13 49.5 26 q22 13 33 22 l11 9 ZM209 482 q-5 0 -9 -1 q-53 -14 -40 -139 q6 -50 21 -107 q40 -149 97 -192 q17 -12 33 -12 q5 0 10 1 q52 14 39 139 q-6 50 -21 107 q-40 149 -97 192 q-17 12 -33 12 Z" /><glyph glyph-name="e" unicode="e" d="M260 500 q123 -1 184 -79 q36 -48 24 -99 q-17 -59 -89 -69 l-189 -21 q2 -8 5 -17 q29 -89 106 -119 q75 -30 142 15 q31 21 52 55 l12 -12 q-45 -113 -158 -149 q-104 -34 -206 14 q-101 49 -132 152 q-7 24 -9 49 q-14 152 79 226 q67 54 179 54 ZM259 484 q-61 0 -76 -98 q-8 -59 3 -134 q1 -2 1 -4 l35 4 q106 12 112 87 q0 9 0 18 q-13 126 -75 127 Z" /><glyph glyph-name="f" unicode="f" d="M299 775 q101 0 128 -65 q13 -31 4 -67 q-14 -57 -64 -67 q-44 -9 -74 21 q-25 28 -15 68 q52 -3 64 34 q10 30 -12 49 q-13 11 -31 11 q-71 -2 -72 -86 q0 -26 23 -73 q29 -63 29 -129 l146 0 l0 -16 l-146 0 l0 -258 l0 -62 q0 -90 44 -110 q18 -9 47 -9 l0 -16 l-91 0 l-180 0 l-90 0 l0 16 q64 0 80 41 q10 26 10 78 l0 62 l0 258 l-99 0 l0 16 l99 0 q0 215 89 275 q43 29 111 29 Z" /><glyph glyph-name="g" unicode="g" d="M463 646 q57 -1 79 -47 q2 -4 3 -8 q17 -48 -18 -83 q-32 -33 -70 -19 q-12 5 -21 13 q21 18 3 46 q-19 29 -51 22 q-14 -3 -25 -13 q-22 -19 -36 -52 q95 -26 140 -104 q25 -45 26 -94 q0 -92 -77 -154 q-67 -53 -156 -53 q-70 0 -128 33 q-40 -15 -29 -42 q14 -33 88 -43 q24 -3 49 -3 q188 0 249 -38 q48 -32 49 -92 q0 -112 -122 -166 q-76 -33 -176 -33 q-187 0 -229 77 q-11 21 -11 44 q0 59 75 80 q1 0 2 0 q-50 14 -65 66 q-18 61 25 112 q29 34 77 50 q-79 56 -87 146 q-1 8 -1 16 q0 91 77 153 q67 53 157 53 q26 0 51 -5 q19 63 51 95 q45 44 101 43 ZM223 489 q-4 -1 -8 -2 q-44 -12 -30 -122 q5 -36 15 -75 q35 -126 83 -157 q16 -9 30 -6 q44 12 30 123 q-5 35 -16 74 q-34 127 -82 158 q-11 6 -22 7 ZM145 -100 q-39 -34 -30 -85 q9 -55 70 -75 q26 -7 56 -7 q83 0 137 52 q42 40 27 73 q-15 28 -68 32 q-18 1 -62 3 q-91 5 -130 7 Z" /><glyph glyph-name="h" unicode="h" d="M254 775 l16 0 l0 -275 l0 -48 q54 43 121 48 q200 11 231 -181 l12 -107 q19 -155 62 -184 q18 -12 57 -12 l0 -16 l-162 0 l-189 0 l0 16 q49 0 59 32 q7 26 1 87 l-19 170 q-16 128 -74 156 q-20 10 -41 5 q-48 -13 -56 -104 q-2 -21 -2 -46 l0 -119 l0 -62 q0 -90 43 -110 q19 -9 47 -9 l0 -16 l-360 0 l0 16 q64 0 80 41 q10 26 10 78 l0 62 l0 338 q0 110 -48 130 q-12 4 -26 6 l0 16 q39 0 78 9 q39 9 66.5 22 q27.5 13 49.5 26 q22 13 33 22 l11 9 Z" /><glyph glyph-name="i" unicode="i" d="M165 775 q57 0 88 -48 q17 -26 17 -57 q0 -57 -48 -88 q-26 -16 -57 -16 q-56 0 -87 47 q-17 26 -17 57 q0 57 48 88 q26 17 56 17 ZM254 500 l16 0 l0 -303 l0 -62 q0 -90 43 -110 q19 -9 47 -9 l0 -16 l-360 0 l0 16 q64 0 80 41 q10 26 10 78 l0 62 l0 63 q0 110 -48 130 q-12 4 -26 6 l0 16 q39 0 78 9 q39 9 66.5 22 q27.5 13 49.5 26 q22 13 33 22 l11 9 Z" /><glyph glyph-name="j" unicode="j" d="M292 775 q56 0 87 -48 q17 -26 17 -57 q0 -57 -48 -88 q-26 -16 -56 -16 q-57 0 -88 47 q-17 27 -17 57 q0 57 48 88 q26 17 57 17 ZM380 500 l16 0 l0 -244 l0 -47 l0 -209 q0 -191 -85 -245 q-44 -26 -114 -27 q-167 0 -193 99 q-6 24 -3 50 q7 56 65 72 q54 15 99 -14 q12 -8 20 -19 q-36 0 -54 -49 q-18 -52 3 -92 q18 -30 53 -30 q70 2 71 85 q0 31 -21 79 q-20 47 -21 91 l0 209 l0 47 l0 4 q0 110 -48 130 q-12 4 -26 6 l0 16 q39 0 78 9 q39 9 66.5 22 q27.5 13 49.5 26 q22 13 33 22 l11 9 Z" /><glyph glyph-name="k" unicode="k" d="M254 775 l16 0 l0 -275 l0 -264 l129 129 q94 94 46 113 q-12 4 -33 6 l0 16 l212 0 l0 -16 q-62 -4 -117 -44 q-32 -23 -70 -61 l162 -261 q57 -86 111 -98 q17 -4 43 -4 l0 -16 l-81 0 l-81 0 l-189 0 l0 16 q46 0 23 46 q-4 7 -13 23 q-6 9 -8 12 l-102 148 l-32 -32 l0 -16 l0 -62 q0 -90 43 -110 q19 -9 47 -9 l0 -16 l-360 0 l0 16 q64 0 80 41 q10 26 10 78 l0 62 l0 338 q0 110 -48 130 q-12 4 -26 6 l0 16 q39 0 78 9 q39 9 66.5 22 q27.5 13 49.5 26 q22 13 33 22 l11 9 Z" /><glyph glyph-name="l" unicode="l" d="M254 775 l16 0 l0 -275 l0 -303 l0 -62 q0 -90 43 -110 q19 -9 47 -9 l0 -16 l-360 0 l0 16 q64 0 80 41 q10 26 10 78 l0 62 l0 338 q0 110 -48 130 q-12 4 -26 6 l0 16 q39 0 78 9 q39 9 66.5 22 q27.5 13 49.5 26 q22 13 33 22 l11 9 Z" /><glyph glyph-name="m" unicode="m" d="M409 500 q141 -1 186 -88 q34 69 112 84 q18 4 37 4 q187 -2 216 -181 l13 -120 q17 -133 29 -157 q14 -25 47 -26 l0 -16 l-160 0 l-1 0 l-160 0 l0 16 q61 0 72 70 q3 22 0 49 l-20 202 q-13 116 -78 124 q-9 1 -19 0 q-48 -7 -60 -68 q-7 -36 -7 -112 l0 -146 q0 -97 42 -114 q13 -5 28 -5 l0 -16 l-160 0 l-1 0 l-160 0 l0 16 q54 0 66 62 q5 24 5 57 l0 211 q0 91 -62 112 q-15 5 -30 5 q-74 0 -88 -91 q-2 -18 -2 -39 l0 -136 l0 -62 q0 -97 42 -114 q13 -5 28 -5 l0 -16 l-160 0 l-1 0 l-159 0 l0 16 q54 0 65 62 q5 24 5 57 l0 31 l0 31 l0 63 q0 110 -49 130 q-12 4 -25 6 l0 16 q39 0 77.5 9 q38.5 9 66.5 22 q28 13 50 26 q22 13 33 22 l11 9 l16 0 l0 -60 q53 53 129 59 q13 1 26 1 Z" /><glyph glyph-name="n" unicode="n" d="M238 500 l16 0 l0 -56 q48 55 128 56 q187 -2 216 -181 l13 -120 q17 -134 29 -158 q14 -24 47 -25 l0 -16 l-160 0 l-1 0 l-159 0 l0 16 q61 0 71 70 q3 23 0 49 l-20 202 q-13 116 -78 124 q-10 1 -19 0 q-48 -7 -60 -68 q-7 -36 -7 -112 l0 -84 l0 -62 q0 -97 42 -114 q13 -5 28 -5 l0 -16 l-160 0 l-1 0 l-159 0 l0 16 q54 0 65 62 q5 24 5 57 l0 31 l0 31 l0 63 q0 110 -49 130 q-12 4 -25 6 l0 16 q39 0 77.5 9 q38.5 9 66.5 22 q28 13 50 26 q22 13 33 22 l11 9 Z" /><glyph glyph-name="o" unicode="o" d="M254 500 q110 0 186 -81 q67 -74 68 -173 q0 -110 -81 -186 q-74 -67 -173 -68 q-111 0 -186 81 q-68 74 -68 173 q0 111 81 186 q74 68 173 68 ZM203 472 q-5 0 -10 -2 q-52 -14 -39 -139 q6 -49 21 -106 q40 -149 97 -192 q22 -16 42 -11 q53 14 40 139 q-6 50 -21 107 q-40 148 -97 191 q-17 13 -33 13 Z" /><glyph glyph-name="p" unicode="p" d="M254 500 l16 0 l0 -45 q53 40 118 45 q6 0 11 0 q6 0 12 0 q98 -5 164 -88 q51 -67 57 -153 q7 -114 -66 -195 q-62 -67 -148 -72 q-82 -5 -148 48 l0 -118 l0 -62 q0 -90 43 -110 q19 -9 47 -9 l0 -16 l-360 0 l0 16 q64 0 80 41 q10 26 10 78 l0 62 l0 338 q0 110 -48 130 q-12 4 -26 6 l0 16 q39 0 78 9 q39 9 66.5 22 q27.5 13 49.5 26 q22 13 33 22 l11 9 ZM321 460 q-5 0 -9 -1 q-42 -13 -42 -99 q1 -63 23 -147 q40 -148 97 -191 q22 -17 43 -12 q52 15 39 139 q-6 50 -21 107 q-40 149 -97 192 q-17 13 -33 12 Z" /><glyph glyph-name="q" unicode="q" d="M526 500 l16 0 l0 -275 l0 -303 l0 -62 q0 -90 43 -110 q19 -9 48 -9 l0 -16 l-361 0 l0 16 q64 0 80 41 q10 26 10 78 l0 62 l0 115 q-53 -41 -117 -45 q-7 -1 -12 -1 q-6 0 -11 1 q-99 5 -165 88 q-51 66 -56 152 q-7 114 65 195 q62 67 148 73 q101 5 174 -73 q37 11 72 29.5 q35 18.5 50 30.5 l16 13 ZM209 482 q-5 0 -9 -1 q-53 -14 -40 -139 q5 -49 21 -107 q40 -149 97 -192 q17 -12 33 -12 q5 0 10 1 q52 14 39 139 q-6 50 -21 107 q-40 149 -97 192 q-17 12 -33 12 Z" /><glyph glyph-name="r" unicode="r" d="M398 507 q68 0 100 -51 q33 -52 -2 -111 q-26 -43 -77 -40 q-48 2 -67 40 q-4 10 -6 20 q42 1 50 39 q7 34 -17 55 q-16 13 -38 9 q-48 -8 -61 -55 q-10 -34 -10 -125 l0 -91 l0 -62 q0 -90 43 -110 q19 -9 47 -9 l0 -16 l-360 0 l0 16 q64 0 80 41 q10 26 10 78 l0 62 l0 63 q0 110 -48 130 q-12 4 -26 6 l0 16 q39 0 78 9 q39 9 66.5 22 q27.5 13 49.5 26 q22 13 33 22 l11 9 l16 0 l0 -49 q25 33 81 49 q24 7 47 7 Z" /><glyph glyph-name="s" unicode="s" d="M209 500 q32 0 97 -13 q24 -4 29 9 q1 2 2 4 l16 0 l16 -164 l-17 -1 q-26 113 -87 139 q-25 10 -56 10 q-49 0 -61 -42 q-8 -27 6 -55 q15 -29 96 -65 q97 -42 125 -62 q58 -42 58 -96 q0 -93 -91 -140 q-63 -32 -153 -32 q-110 0 -163 63 q-35 43 -23 93 q13 49 63 53 q4 0 6 0 q46 1 71 -35 q19 -28 10 -64 q-30 15 -49 -17 q-8 -14 -8 -27 q1 -33 45 -45 q18 -4 39 -5 q71 0 92 56 q6 15 6 31 q0 47 -66 81 q-15 9 -50 24 q-87 38 -117 70 q-32 34 -37 78 q-8 92 78 130 q49 22 123 22 Z" /><glyph glyph-name="t" unicode="t" d="M247 682 l16 0 l0 -211 l95 0 l0 -16 l-95 0 l0 -225 l0 -57 q0 -99 42 -100 q31 0 62 51 q1 2 1 3 l12 -11 q-33 -57 -56 -79 q-46 -45 -107 -45 q-103 0 -126 102 q-8 34 -8 79 l0 60 l0 209 l0 13 l-83 0 l0 16 q111 30 188 112 q45 49 59 99 Z" /><glyph glyph-name="u" unicode="u" d="M238 500 l16 0 l0 -255 l0 -70 q0 -140 65 -158 q9 -2 18 -3 q66 0 85 103 q5 33 5 71 l0 64 l0 8 q0 110 -48 130 q-12 4 -25 6 l0 16 q120 0 224 77 q13 11 13 11 l16 0 l0 -291 l0 -49 q0 -126 54 -122 q13 1 24 8 l0 -17 q-24 -22 -87 -33 q-110 -19 -154 46 q-3 5 -5 10 q-46 -61 -157 -60 q-128 2 -181 83 q-27 43 -27 101 l0 33 l0 51 q0 110 -49 130 q-12 4 -25 6 l0 16 q120 0 224 77 q14 11 14 11 Z" /><glyph glyph-name="v" unicode="v" d="M0 500 l35 0 l125 0 l71 0 l89 0 l0 -16 q-80 -2 -27 -119 l92 -203 l77 203 q33 85 11 106 q-12 11 -41 13 l0 16 l197 0 l0 -16 q-54 -4 -74 -14 q-44 -24 -75 -105 l-139 -365 l-18 0 l-69 0 l-160 365 q-39 79 -49 92 q-21 26 -45 27 l0 16 Z" /><glyph glyph-name="w" unicode="w" d="M0 500 l35 0 l125 0 l71 0 l89 0 l0 -16 q-81 0 -28 -117 q1 -2 1 -2 l92 -203 l88 231 q-33 68 -53 82 q-13 8 -27 9 l0 16 l159 0 l72 0 l89 0 l0 -16 q-79 0 -28 -117 q0 -2 0 -2 l93 -203 l77 203 q32 85 11 106 q-13 11 -41 13 l0 16 l196 0 l0 -16 q-54 -4 -74 -14 q-43 -24 -75 -105 l-139 -365 l-17 0 l-69 0 l-160 365 q-1 2 -4 8 l-142 -373 l-18 0 l-69 0 l-160 365 q-39 79 -49 92 q-21 26 -45 27 l0 16 Z" /><glyph glyph-name="x" unicode="x" d="M0 500 l360 0 l0 -16 q-50 1 -51 -24 q1 -26 56 -95 l46 -58 l61 58 q112 105 26 117 q-7 1 -15 2 l0 16 l197 0 l0 -16 q-47 0 -128 -69 q-25 -21 -56 -50 l-75 -71 l162 -203 q47 -59 70 -69 q13 -6 29 -6 l0 -16 l-361 0 l0 16 q52 -1 52 26 q-2 26 -55 93 l-49 62 l-65 -62 q-116 -109 -13 -118 q3 -1 6 -1 l0 -16 l-137 0 l-24 0 l-36 0 l0 16 q43 0 112 58 q29 24 68 61 l79 74 l-131 165 q-66 82 -86 97 q-19 13 -42 13 l0 16 Z" /><glyph glyph-name="y" unicode="y" d="M0 500 l360 0 l0 -16 q-68 1 -67 -47 q1 -27 21 -72 l100 -224 l86 224 q37 93 0 112 q-11 6 -27 7 l0 16 l197 0 l0 -16 q-83 -11 -112 -43 q-19 -21 -40 -76 l-178 -461 l-6 -16 q-40 -105 -104 -125 q-20 -6 -52 -7 q-67 -3 -107 41 q-35 38 -29 96 q5 54 56 73 q49 17 89 -12 q26 -20 33 -53 q-32 0 -43 -31 q-12 -31 12 -47 q7 -4 15 -6 q59 -13 94 35 q10 14 16 30 l8 22 l-206 461 q-53 118 -116 119 l0 16 Z" /><glyph glyph-name="z" unicode="z" d="M61 500 l0 0 l31 0 l158 0 l29 0 l97 0 l102 0 l0 -16 l-17 -29 l-141 -244 l-79 -138 l-33 -57 l123 0 q82 0 109 40 q15 21 27 68 l16 0 l-12 -124 l-30 0 l-158 0 l-126 0 l-157 0 l0 16 l59 102 l80 138 l131 228 l-69 0 q-81 0 -109 -40 q-14 -21 -27 -68 l-16 0 l12 124 Z" /></font>
</defs>
</svg>
