<?xml version="1.0" standalone="no"?><!DOCTYPE svg PUBLIC "-//W3C//DTD SVG 1.1//EN" "http://www.w3.org/Graphics/SVG/1.1/DTD/svg11.dtd" ><svg xmlns="http://www.w3.org/2000/svg"><metadata></metadata><defs><font id="Hanyi Alibaba-PuHuiTi-Bold v1.10" horiz-adv-x="984"><font-face font-family="Alibaba PuHuiTi" font-weight="700" font-stretch="normal" units-per-em="1000" panose-1="0 2 6 0 4 1 1 1 1 1" ascent="1050" descent="-322" x-height="1" bbox="3 -200 963 817" underline-thickness="50" underline-position="-75" unicode-range="U+0032-ff0c" /><missing-glyph horiz-adv-x="575" d="M80 742 l415 0 l0 -742 l-415 0 l0 742 ZM426 66 l0 611 l-276 0 l0 -611 l276 0 Z" /><glyph glyph-name="two" unicode="2" d="M51 130 q91 73 152.5 127 q61.5 54 98.5 94.5 q37 40.5 52.5 72 q15.5 31.5 15.5 61.5 q0 57 -32 78 q-32 21 -89 21 q-34 0 -72.5 -6 q-38.5 -6 -83.5 -20 l0 121 q40 13 87 19 q47 6 97 6 q115 0 179 -48.5 q64 -48.5 64 -148.5 q0 -42 -9.5 -78.5 q-9.5 -36.5 -36 -75.5 q-26.5 -39 -74 -84.5 q-47.5 -45.5 -123.5 -105.5 l-44 -35 l0 -8 l303 0 l0 -120 l-485 0 l0 130 Z" /><glyph glyph-name="C" unicode="c" d="M394 -10 q-76 0 -138 15 q-62 15 -106 54.5 q-44 39.5 -68 109 q-24 69.5 -24 178.5 q0 100 23.5 168.5 q23.5 68.5 67.5 110.5 q44 42 105.5 60 q61.5 18 138.5 18 q98 0 162 -23 l0 -131 q-32 11 -70 17.5 q-38 6.5 -82 6.5 q-47 0 -81 -11.5 q-34 -11.5 -56 -38 q-22 -26.5 -32.5 -69.5 q-10.5 -43 -10.5 -107 q0 -68 10.5 -111.5 q10.5 -43.5 32.5 -69 q22 -25.5 55.5 -35.5 q33.5 -10 79.5 -10 q43 0 82.5 6.5 q39.5 6.5 79.5 20.5 l0 -130 q-31 -13 -75 -21 q-44 -8 -94 -8 Z" /><glyph glyph-name="F" unicode="f" d="M229 562 l0 -161 l252 0 l0 -131 l-252 0 l0 -270 l-152 0 l0 694 l424 0 l0 -132 l-272 0 Z" /><glyph glyph-name="N" unicode="n" d="M77 694 l232 0 l218 -496 l6 0 l0 496 l149 0 l0 -694 l-209 0 l-240 528 l-6 0 l0 -528 l-150 0 l0 694 Z" /><glyph glyph-name="Y" unicode="y" d="M255 275 l-252 419 l178 0 l149 -277 l6 0 l154 277 l171 0 l-253 -416 l0 -278 l-153 0 l0 275 Z" /><glyph glyph-name="l" unicode="l" d="M229 -6 q-45 0 -75 8.5 q-30 8.5 -48.5 25.5 q-18.5 17 -26 43.5 q-7.5 26.5 -7.5 62.5 l0 626 l145 0 l0 -591 q0 -36 10 -48 q10 -12 35 -12 q6 0 13 0.5 q7 0.5 16 2.5 l0 -112 q-29 -6 -62 -6 Z" /><glyph glyph-name="y" unicode="y" d="M75 -75 q68 0 98 19.5 q30 19.5 42 60.5 l-210 535 l161 0 l127 -385 l6 0 l120 385 l156 0 l-181 -490 q-27 -72 -53.5 -120.5 q-26.5 -48.5 -62 -77 q-35.5 -28.5 -84.5 -40.5 q-49 -12 -119 -12 l0 125 Z" /><glyph glyph-name="uniFF0C" unicode="&#xff0c;" d="M113 -136 q17 30 33 68 q16 38 28.5 78.5 q12.5 40.5 20 79 q7.5 38.5 7.5 70.5 l140 0 q0 -32 -10.5 -72 q-10.5 -40 -26.5 -81.5 q-16 -41.5 -36 -79 q-20 -37.5 -39 -63.5 l-117 0 Z" /><glyph glyph-name="uni4E00" unicode="&#x4e00;" d="M926 317 l-870 0 l0 140 l870 0 l0 -140 Z" /><glyph glyph-name="uni4E0B" unicode="&#x4e0b;" d="M535 627 l0 -150 l30 47 q33 -18 72 -43 q39 -25 80 -52.5 q41 -27.5 83 -56.5 q42 -29 81 -56 l-68 -120 q-28 23 -62.5 50.5 q-34.5 27.5 -72 55.5 q-37.5 28 -74.5 54.5 q-37 26.5 -69 46.5 l0 -489 l-132 0 l0 713 l-332 0 l0 124 l842 0 l0 -124 l-378 0 Z" /><glyph glyph-name="uni4E13" unicode="&#x4e13;" d="M397 394 q-8 -18 -15.5 -35 q-7.5 -17 -15.5 -32 l465 0 l0 -125 q-43 -32 -89.5 -70.5 q-46.5 -38.5 -90.5 -76.5 q39 -13 74.5 -24.5 q35.5 -11.5 65.5 -22.5 l-35 -127 q-63 25 -138.5 51.5 q-75.5 26.5 -152 51.5 q-76.5 25 -148 46.5 q-71.5 21.5 -125.5 35.5 l37 115 q60 -17 135.5 -39 q75.5 -22 153.5 -45 q37 29 72.5 58 q35.5 29 67.5 52 l-444 0 l0 107 q10 17 20 37 q10 20 21 43 l-186 0 l0 119 l234 0 q7 17 13 35 q6 18 12 36 l-201 0 l0 120 l239 0 q8 26 15 51.5 q7 25.5 13 49.5 l129 -23 q-5 -20 -10 -39 q-5 -19 -10 -39 l353 0 l0 -120 l-389 0 l-24 -71 l472 0 l0 -119 l-518 0 Z" /><glyph glyph-name="uni4E1A" unicode="&#x4e1a;" d="M918 55 l0 -122 l-849 0 l0 122 l254 0 l0 170 l-108 -44 q-15 58 -31 114.5 q-16 56.5 -33 109 q-17 52.5 -34 100 q-17 47.5 -34 86.5 l125 41 q28 -72 58 -159 q30 -87 57 -182 l0 495 l129 -6 l0 -725 l82 0 l0 731 l129 -6 l0 -524 q18 43 37 96.5 q19 53.5 35 107 q16 53.5 29 102 q13 48.5 19 81.5 l124 -30 q-8 -36 -22.5 -91 q-14.5 -55 -33 -115.5 q-18.5 -60.5 -39.5 -120.5 q-21 -60 -41 -105 l-108 41 l0 -167 l255 0 Z" /><glyph glyph-name="uni4E2D" unicode="&#x4e2d;" d="M881 175 l-320 0 l0 -279 l-131 0 l0 279 l-327 0 l0 458 l327 0 l0 163 l131 -5 l0 -158 l320 0 l0 -458 ZM430 301 l0 205 l-194 0 l0 -205 l194 0 ZM749 506 l-188 0 l0 -205 l188 0 l0 205 Z" /><glyph glyph-name="uni4E3B" unicode="&#x4e3b;" d="M925 53 l0 -123 l-868 0 l0 123 l369 0 l0 192 l-285 0 l0 126 l285 0 l0 156 l-325 0 l0 126 l330 0 l-27 131 l134 6 l25 -137 l319 0 l0 -126 l-325 0 l0 -156 l284 0 l0 -126 l-284 0 l0 -192 l368 0 Z" /><glyph glyph-name="uni4E50" unicode="&#x4e50;" d="M572 306 l0 -276 q0 -36 -6.5 -59.5 q-6.5 -23.5 -21.5 -37.5 q-15 -14 -38.5 -21 q-23.5 -7 -57.5 -11 l-84 -9 l-44 126 l74 8 q29 3 37 12 q8 9 8 29 l0 239 l-332 0 l43 431 q84 3 173 8.5 q89 5.5 175.5 13 q86.5 7.5 166.5 16.5 q80 9 145 20 l26 -128 q-63 -9 -135.5 -17.5 q-72.5 -8.5 -147.5 -15 q-75 -6.5 -147.5 -12 q-72.5 -5.5 -134.5 -9.5 l-23 -183 l191 0 l0 178 l133 -5 l0 -173 l309 0 l0 -124 l-309 0 ZM714 291 q23 -23 53.5 -56.5 q30.5 -33.5 62 -69.5 q31.5 -36 61 -72 q29.5 -36 51.5 -65 l-98 -91 q-20 28 -48.5 65 q-28.5 37 -60 75.5 q-31.5 38.5 -62.5 73.5 q-31 35 -56 61 l97 79 ZM350 222 q-19 -33 -45 -71 q-26 -38 -55 -76 q-29 -38 -60.5 -74.5 q-31.5 -36.5 -62.5 -66.5 l-100 80 q32 30 63 65 q31 35 59 71 q28 36 51.5 72 q23.5 36 40.5 68 l109 -68 Z" /><glyph glyph-name="uni4E91" unicode="&#x4e91;" d="M830 635 l-678 0 l0 125 l678 0 l0 -125 ZM509 371 q-23 -40 -51 -84 q-28 -44 -56 -83 q-28 -39 -52.5 -69.5 q-24.5 -30.5 -39.5 -44.5 q36 3 78 6 q42 3 87.5 6.5 q45.5 3.5 91.5 7 q46 3.5 89 6.5 q-24 38 -49 76 q-25 38 -51 76 l106 62 q54 -76 109 -162 q55 -86 112 -183 l-104 -76 q-13 23 -25.5 44.5 q-12.5 21.5 -25.5 43.5 q-30 -2 -70.5 -4.5 q-40.5 -2.5 -87 -6 q-46.5 -3.5 -96 -7 q-49.5 -3.5 -97 -7 q-47.5 -3.5 -90.5 -7 q-43 -3.5 -76 -6.5 q-21 -2 -37.5 -3.5 q-16.5 -1.5 -33.5 -4.5 l-36 128 q13 5 22.5 10 q9.5 5 17 11 q7.5 6 15 13.5 q7.5 7.5 18.5 16.5 q16 15 38 40.5 q22 25.5 46 58 q24 32.5 48.5 69 q24.5 36.5 45.5 73.5 l-289 0 l0 125 l850 0 l0 -125 l-407 0 Z" /><glyph glyph-name="uni4EBA" unicode="&#x4eba;" d="M548 614 q12 -101 45 -187.5 q33 -86.5 84 -162.5 q51 -76 118 -141.5 q67 -65.5 148 -122.5 l-92 -113 q-131 108 -219 218.5 q-88 110.5 -137 234.5 q-45 -120 -129 -225.5 q-84 -105.5 -216 -206.5 l-105 93 q102 74 173.5 148 q71.5 74 116.5 157 q45 83 66 179 q21 96 22 213 q0 7 0.5 18.5 q0.5 11.5 1 23.5 q0.5 12 0.5 23 q0 11 0 19 l125 -5 q0 -11 -0.5 -28.5 q-0.5 -17.5 -0.5 -36 q0 -18.5 0 -36 q0 -17.5 0 -27.5 q0 -9 -0.5 -17.5 q-0.5 -8.5 -0.5 -17.5 Z" /><glyph glyph-name="uni4F18" unicode="&#x4f18;" d="M940 153 q-1 -14 -3 -31.5 q-2 -17.5 -3.5 -34.5 q-1.5 -17 -3 -31 q-1.5 -14 -2.5 -20 q-5 -38 -12 -60 q-7 -22 -21.5 -34 q-14.5 -12 -38 -17 q-23.5 -5 -61.5 -8 q-18 -2 -41 -2 q-23 0 -40 2 q-28 2 -50 8.5 q-22 6.5 -37.5 21 q-15.5 14.5 -23.5 38 q-8 23.5 -8 60.5 l0 346 q-8 -74 -24 -137.5 q-16 -63.5 -44 -122.5 q-28 -59 -69 -116 q-41 -57 -99 -118 l-79 64 l0 -60 l-121 0 l0 453 q-12 -18 -25.5 -35.5 q-13.5 -17.5 -27.5 -35.5 l-78 99 q29 35 60.5 85 q31.5 50 60 107 q28.5 57 51 117 q22.5 60 34.5 114 l121 -35 q-17 -56 -36 -105.5 q-19 -49.5 -39 -96.5 l0 -562 q52 54 87 104 q35 50 57 103.5 q22 53.5 34 114.5 q12 61 18 137 l-162 0 l0 123 l169 0 q0 21 0 50 q0 29 0 58 q0 29 0 54.5 q0 25.5 0 40.5 l126 -5 l-4 -198 l151 0 q-12 15 -26 32.5 q-14 17.5 -28 34 q-14 16.5 -28 31.5 q-14 15 -25 25 l82 73 q14 -12 31.5 -29 q17.5 -17 35.5 -35.5 q18 -18.5 34 -37.5 q16 -19 27 -35 l-55 -59 l99 0 l0 -123 l-302 0 q-1 -6 -1 -12 q0 -6 -1 -12 l118 -5 l0 -358 q0 -13 1.5 -20.5 q1.5 -7.5 5.5 -12 q4 -4.5 11 -6.5 q7 -2 19 -3 q13 -2 27 0 q19 2 25 8.5 q6 6.5 9 32.5 q3 24 5.5 53 q2.5 29 4.5 58 l115 -35 Z" /><glyph glyph-name="uni5236" unicode="&#x5236;" d="M398 490 l184 0 l0 -114 l-184 0 l0 -57 l174 0 l0 -265 q0 -54 -21.5 -74.5 q-21.5 -20.5 -63.5 -25.5 l-50 -6 l-34 110 l35 6 q14 2 20.5 8.5 q6.5 6.5 6.5 25.5 l0 107 l-67 0 l0 -313 l-117 0 l0 313 l-74 0 l0 -254 l-107 0 l0 368 l181 0 l0 57 l-223 0 l0 114 l77 0 l-75 26 q26 58 47 119.5 q21 61.5 32 123.5 l111 -18 q-4 -16 -7.5 -32.5 q-3.5 -16.5 -8.5 -33.5 l47 0 l0 112 l117 -5 l0 -107 l163 0 l0 -113 l-163 0 l0 -72 ZM903 769 l0 -736 q0 -39 -4.5 -64 q-4.5 -25 -18 -39.5 q-13.5 -14.5 -37 -22 q-23.5 -7.5 -62.5 -11.5 l-66 -8 l-40 116 l66 8 q29 4 37.5 17 q8.5 13 8.5 44 l0 701 l116 -5 ZM731 113 l-114 0 l0 583 l114 -5 l0 -578 ZM281 490 l0 72 l-82 0 q-7 -20 -14.5 -38 q-7.5 -18 -15.5 -34 l112 0 Z" /><glyph glyph-name="uni52A0" unicode="&#x52a0;" d="M303 791 q0 -16 -1 -53.5 q-1 -37.5 -2 -79.5 l197 0 l-13 -588 q-1 -45 -7.5 -73.5 q-6.5 -28.5 -22.5 -45 q-16 -16.5 -43.5 -24 q-27.5 -7.5 -71.5 -11.5 l-58 -5 l-39 124 l57 4 q22 2 34.5 6 q12.5 4 18.5 14 q6 10 7.5 26.5 q1.5 16.5 1.5 42.5 q0 11 1 42.5 q1 31.5 2.5 73.5 q1.5 42 2.5 89 q1 47 2 88.5 q1 41.5 2 72 q1 30.5 1 39.5 l-77 0 q-5 -117 -13.5 -203.5 q-8.5 -86.5 -25.5 -158.5 q-17 -72 -45 -137.5 q-28 -65.5 -71 -139.5 l-113 67 q40 65 66 122.5 q26 57.5 41.5 122 q15.5 64.5 24 142.5 q8.5 78 14.5 185 l-100 0 l0 125 l105 0 q1 42 1.5 81.5 q0.5 39.5 0.5 56.5 l123 -5 ZM893 706 l0 -749 l-355 0 l0 749 l355 0 ZM772 582 l-109 0 l0 -504 l109 0 l0 504 Z" /><glyph glyph-name="uni548C" unicode="&#x548c;" d="M367 374 q12 -11 29 -26.5 q17 -15.5 34.5 -33.5 q17.5 -18 35 -36 q17.5 -18 31.5 -34 l-80 -91 q-17 25 -38.5 52 q-21.5 27 -43.5 51 l0 -346 l-118 0 l0 324 q-25 -45 -52.5 -86 q-27.5 -41 -56.5 -76 l-81 87 q46 54 92.5 126 q46.5 72 82.5 145 l-128 0 l0 122 l143 0 l0 76 q-33 -6 -64.5 -11 q-31.5 -5 -57.5 -9 l-12 118 q37 5 82.5 12.5 q45.5 7.5 93 16.5 q47.5 9 93 19 q45.5 10 83.5 20 l23 -116 q-26 -7 -57 -14 q-31 -7 -66 -14 l0 -98 l139 0 l0 -122 l-139 0 l0 -89 l32 33 ZM885 723 l0 -770 l-380 0 l0 770 l380 0 ZM764 591 l-140 0 l0 -508 l140 0 l0 508 Z" /><glyph glyph-name="uni5668" unicode="&#x5668;" d="M897 157 q-10 2 -19.5 3.5 q-9.5 1.5 -19.5 3.5 l0 -239 l-344 0 l0 299 l151 0 q-97 44 -170 114 l-11 0 q-28 -34 -70.5 -61 q-42.5 -27 -109.5 -53 l159 0 l0 -299 l-340 0 l0 240 l-43 -12 l-39 112 q88 16 150.5 33.5 q62.5 17.5 105.5 39.5 l-212 0 l0 107 l322 0 q5 11 9.5 23 q4.5 12 7.5 26 l-304 0 l0 282 l343 0 l0 -278 l93 -16 q-3 -10 -6.5 -19 q-3.5 -9 -6.5 -18 l103 0 q-2 8 -5 16 q-3 8 -5 15 l96 16 q5 -12 8.5 -24 q3.5 -12 7.5 -23 l147 0 l0 -107 l-230 0 q48 -25 115 -41.5 q67 -16.5 161 -30.5 l-44 -109 ZM858 494 l-343 0 l0 282 l343 0 l0 -282 ZM353 676 l-123 0 l0 -80 l123 0 l0 80 ZM751 676 l-127 0 l0 -80 l127 0 l0 80 ZM353 130 l-120 0 l0 -106 l120 0 l0 106 ZM749 130 l-126 0 l0 -106 l126 0 l0 106 Z" /><glyph glyph-name="uni56DE" unicode="&#x56de;" d="M888 771 l0 -840 l-800 0 l0 840 l800 0 ZM760 61 l0 579 l-543 0 l0 -579 l543 0 ZM685 158 l-395 0 l0 392 l395 0 l0 -392 ZM574 274 l0 162 l-173 0 l0 -162 l173 0 Z" /><glyph glyph-name="uni56FD" unicode="&#x56fd;" d="M897 776 l0 -859 l-806 0 l0 859 l806 0 ZM770 663 l-556 0 l0 -629 l556 0 l0 629 ZM746 89 l-507 0 l0 108 l193 0 l0 126 l-156 0 l0 107 l156 0 l0 76 l-174 0 l0 107 l471 0 l0 -107 l-183 0 l0 -76 l166 0 l0 -107 l-58 0 q15 -19 34 -45 q19 -26 31 -45 l-47 -36 l74 0 l0 -108 ZM546 197 l85 0 q-15 22 -30.5 43.5 q-15.5 21.5 -28.5 37.5 l63 45 l-89 0 l0 -126 Z" /><glyph glyph-name="uni5728" unicode="&#x5728;" d="M407 579 q-24 -52 -52 -100.5 q-28 -48.5 -60 -94.5 l0 -472 l-124 0 l0 321 q-19 -20 -39 -40 q-20 -20 -42 -40 l-77 111 q72 63 137 143.5 q65 80.5 116 171.5 l-199 0 l0 121 l258 0 q23 57 39 112 l120 -30 l-27 -82 l442 0 l0 -121 l-492 0 ZM910 72 l0 -120 l-592 0 l0 120 l227 0 l0 205 l-197 0 l0 119 l197 0 l0 139 l121 -5 l0 -134 l197 0 l0 -119 l-197 0 l0 -205 l244 0 Z" /><glyph glyph-name="uni5730" unicode="&#x5730;" d="M945 140 q-2 -22 -4.5 -55 q-2.5 -33 -7.5 -59 q-6 -33 -16 -53.5 q-10 -20.5 -27 -32.5 q-17 -12 -43.5 -17.5 q-26.5 -5.5 -63.5 -7.5 q-123 -6 -246 0 q-36 2 -62 9 q-26 7 -43 22.5 q-17 15.5 -25.5 41.5 q-8.5 26 -8.5 67 l0 317 l-33 -11 l-18 69 l-71 0 l0 -270 q28 11 49 20 q21 9 32 14 l6 -39 l13 -74 q-16 -7 -54 -23 q-38 -16 -83 -34 q-45 -18 -90 -35 q-45 -17 -74 -27 l-30 112 q19 5 49.5 16 q30.5 11 65.5 25 l0 315 l-87 0 l0 118 l87 0 l0 226 l116 -5 l0 -221 l73 0 l0 -69 l49 17 l0 202 l116 -5 l0 -156 l62 22 l0 233 l112 -5 l0 -189 l192 68 q-1 -27 -2 -65.5 q-1 -38.5 -2 -80 q-1 -41.5 -2.5 -83.5 q-1.5 -42 -2.5 -75.5 q-1 -33.5 -2 -56 q-1 -22.5 -1 -25.5 q-3 -32 -9.5 -51.5 q-6.5 -19.5 -20 -31 q-13.5 -11.5 -35 -17 q-21.5 -5.5 -54.5 -9.5 l-32 -4 l-29 93 l0 -162 l-112 0 l0 335 l-62 -21 l0 -318 q0 -20 2 -31.5 q2 -11.5 8 -18 q6 -6.5 18.5 -9 q12.5 -2.5 33.5 -3.5 q80 -6 161 0 q26 2 41 4.5 q15 2.5 23 8.5 q8 6 11.5 17 q3.5 11 6.5 30 q2 14 5 39 q3 25 4 45 l117 -36 ZM688 471 l0 -197 l23 3 q13 2 21.5 5 q8.5 3 13 9 q4.5 6 6 15.5 q1.5 9.5 2.5 23.5 q1 22 2.5 48.5 q1.5 26.5 2 50 q0.5 23.5 1 42 q0.5 18.5 0.5 25.5 l-72 -25 Z" /><glyph glyph-name="uni573A" unicode="&#x573a;" d="M902 486 l-29 -438 q-5 -33 -12.5 -56 q-7.5 -23 -23 -38 q-15.5 -15 -41 -23.5 q-25.5 -8.5 -64.5 -12.5 l-70 -7 l-38 125 l84 8 q28 3 38 16.5 q10 13.5 13 45.5 q1 12 4 48 q3 36 6.5 78 q3.5 42 6.5 81.5 q3 39.5 4 59.5 l-47 0 q-8 -53 -23.5 -114 q-15.5 -61 -44 -124.5 q-28.5 -63.5 -72.5 -127 q-44 -63.5 -109 -120.5 l-90 82 q62 49 103.5 103.5 q41.5 54.5 68 108.5 q26.5 54 41 103.5 q14.5 49.5 21.5 88.5 l-61 0 q-27 -95 -79 -194 q-52 -99 -145 -191 l-91 76 q20 17 37.5 34.5 q17.5 17.5 33.5 35.5 q-25 -11 -58 -24 q-33 -13 -68.5 -26 q-35.5 -13 -71.5 -24 q-36 -11 -68 -19 l-19 117 q18 4 49.5 12.5 q31.5 8.5 68.5 20.5 l0 274 l-88 0 l0 118 l88 0 l0 211 l121 -5 l0 -206 l76 0 l0 -118 l-76 0 l0 -233 q14 5 27.5 10.5 q13.5 5.5 24.5 10.5 l10 -100 q44 54 73 110 q29 56 47 110 l-87 0 l0 113 q39 19 76.5 40.5 q37.5 21.5 71 42 q33.5 20.5 61 39.5 q27.5 19 46.5 33 l-214 0 l0 118 l421 0 l0 -118 q-23 -17 -55.5 -38.5 q-32.5 -21.5 -66.5 -43 q-34 -21.5 -66 -41 q-32 -19.5 -56 -32.5 l312 0 Z" /><glyph glyph-name="uni57DF" unicode="&#x57df;" d="M947 108 q-2 -11 -3 -21.5 q-1 -10.5 -2.5 -22.5 q-1.5 -12 -4.5 -26 q-3 -14 -8 -33 q-9 -36 -20.5 -58 q-11.5 -22 -25 -34.5 q-13.5 -12.5 -30 -16.5 q-16.5 -4 -35.5 -4 q-35 0 -64 26.5 q-29 26.5 -55 87.5 l-3 8 q-23 -30 -50 -58.5 q-27 -28.5 -57 -57.5 l-84 90 q14 12 27.5 23.5 q13.5 11.5 26.5 23.5 q-30 -8 -69.5 -19 q-39.5 -11 -77.5 -21.5 q-38 -10.5 -67.5 -19 q-29.5 -8.5 -39.5 -11.5 l-26 116 q9 2 33 8.5 q24 6.5 54.5 14 q30.5 7.5 64.5 16.5 q34 9 65 17 q31 8 54.5 14 q23.5 6 33.5 9 l8 -51 l7 -34 q17 18 32 35.5 q15 17.5 29 36.5 q-17 81 -27.5 183 q-10.5 102 -13.5 223 l-274 0 l0 113 l272 0 l0 131 l106 -4 l2 -127 l93 0 q-23 23 -42 40.5 q-19 17.5 -38 35.5 l63 66 q23 -20 47.5 -41.5 q24.5 -21.5 52.5 -49.5 l-46 -51 l58 0 l0 -113 l-185 0 q2 -75 5.5 -137 q3.5 -62 8.5 -115 q18 44 34 94.5 q16 50.5 33 112.5 l98 -34 q-29 -103 -60.5 -187 q-31.5 -84 -73.5 -157 q3 -11 6 -21.5 q3 -10.5 7 -20.5 q11 -29 18 -39.5 q7 -10.5 12 -10.5 q6 0 12.5 9.5 q6.5 9.5 13.5 39.5 q3 17 5 29.5 q2 12.5 4 30.5 l96 -38 ZM343 118 q-10 -3 -31.5 -9.5 q-21.5 -6.5 -48.5 -14.5 q-27 -8 -57 -17.5 q-30 -9.5 -57.5 -17.5 q-27.5 -8 -50 -15 q-22.5 -7 -33.5 -11 l-26 120 q11 3 42.5 12.5 q31.5 9.5 71.5 20.5 l0 267 l-77 0 l0 118 l77 0 l0 210 l115 -5 l0 -205 l63 0 l0 -118 l-63 0 l0 -233 l58 18 l9 -60 l8 -60 ZM599 179 l-247 0 l0 317 l247 0 l0 -317 ZM505 389 l-57 0 l0 -103 l57 0 l0 103 Z" /><glyph glyph-name="uni5916" unicode="&#x5916;" d="M358 767 q-7 -26 -14 -51.5 q-7 -25.5 -15 -51.5 l214 0 l0 -125 q-17 -99 -49 -183.5 q-32 -84.5 -81 -161.5 q-49 -77 -115.5 -151 q-66.5 -74 -152.5 -151 l-103 97 q81 67 141 128 q60 61 105 123 q-25 20 -54 42.5 q-29 22.5 -57 42.5 q-26 -42 -54 -81 l-86 100 q65 98 116.5 216 q51.5 118 80.5 239 l124 -32 ZM734 526 q22 -14 50.5 -33.5 q28.5 -19.5 58 -42 q29.5 -22.5 57.5 -45.5 q28 -23 50 -43 l-70 -112 q-18 20 -40.5 41.5 q-22.5 21.5 -46.5 43 q-24 21.5 -48 41 q-24 19.5 -46 36.5 l0 -501 l-121 0 l0 879 l121 -5 l0 -310 l35 51 ZM283 539 q-11 -26 -22 -51 q-11 -25 -23 -50 q29 -19 62 -42 q33 -23 57 -41 q41 83 65 184 l-139 0 Z" /><glyph glyph-name="uni591A" unicode="&#x591a;" d="M909 367 l0 -108 q-43 -42 -87.5 -79 q-44.5 -37 -95 -70 q-50.5 -33 -109.5 -63 q-59 -30 -132 -57.5 q-73 -27.5 -162.5 -53 q-89.5 -25.5 -200.5 -49.5 l-58 104 q119 25 211 50 q92 25 164 51 l-114 75 q-38 -23 -80 -45 q-42 -22 -90 -45 l-66 101 q92 40 174.5 89.5 q82.5 49.5 147.5 101.5 q-122 -46 -283 -82 l-54 105 q88 17 163.5 38 q75.5 21 143.5 45 q-20 13 -47.5 30 q-27.5 17 -54.5 33 q-29 -17 -58.5 -33.5 q-29.5 -16.5 -61.5 -31.5 l-67 97 q108 53 197.5 116 q89.5 63 149.5 126 l105 -53 q-5 -7 -11 -13.5 q-6 -6.5 -12 -13.5 l355 0 l0 -109 q-66 -52 -142.5 -100 q-76.5 -48 -171.5 -93 l45 -24 l-34 -39 l336 0 ZM379 604 q23 -12 47 -24.5 q24 -12.5 44 -23.5 l-60 -71 q85 32 156 66.5 q71 34.5 131 71.5 l-294 0 q-6 -5 -12 -9.5 q-6 -4.5 -12 -9.5 ZM465 101 q50 19 91 38.5 q41 19.5 75 39.5 q34 20 62 40 q28 20 52 40 l-287 0 q-8 -7 -16.5 -13 q-8.5 -6 -16.5 -12 q28 -15 55.5 -31 q27.5 -16 52.5 -30 l-68 -72 Z" /><glyph glyph-name="uni5947" unicode="&#x5947;" d="M933 339 l-107 0 l0 -292 q0 -42 -5 -69 q-5 -27 -18 -44 q-13 -17 -36.5 -25.5 q-23.5 -8.5 -60.5 -11.5 l-81 -7 l-33 104 l-442 0 l0 307 l452 0 l0 -299 l54 7 q14 2 22.5 5 q8.5 3 13 9 q4.5 6 6 15.5 q1.5 9.5 1.5 23.5 l0 277 l-650 0 l0 116 l117 0 l-25 68 q55 10 96 19.5 q41 9.5 71 19 q30 9.5 50.5 20.5 q20.5 11 33.5 24 l-284 0 l0 113 l320 0 q1 18 2 38.5 q1 20.5 0 31.5 l124 -5 q0 -11 -0.5 -29.5 q-0.5 -18.5 -1.5 -35.5 l321 0 l0 -113 l-284 0 q31 -11 64.5 -23.5 q33.5 -12.5 65 -24 q31.5 -11.5 59 -22 q27.5 -10.5 46.5 -18.5 l-36 -63 l145 0 l0 -116 ZM493 541 q-49 -52 -166 -86 l363 0 q-47 21 -100.5 44.5 q-53.5 23.5 -96.5 41.5 ZM477 192 l-202 0 l0 -87 l202 0 l0 87 Z" /><glyph glyph-name="uni5C31" unicode="&#x5c31;" d="M507 597 l-427 0 l0 111 l158 0 l-17 82 l115 6 l17 -88 l154 0 l0 -111 ZM945 126 q0 -27 -0.5 -52 q-0.5 -25 -4.5 -55 q-4 -32 -11 -51.5 q-7 -19.5 -19 -31 q-12 -11.5 -29 -16 q-17 -4.5 -40 -7.5 q-6 -1 -18.5 -1.5 q-12.5 -0.5 -26 -0.5 q-13.5 0 -26.5 0.5 q-13 0.5 -19 1.5 q-42 5 -58.5 30.5 q-16.5 25.5 -16.5 85.5 l0 382 q-5 -87 -18 -155.5 q-13 -68.5 -36 -128 q-23 -59.5 -56.5 -114.5 q-33.5 -55 -79.5 -115 l-100 75 q33 39 58.5 74.5 q25.5 35.5 45.5 71.5 l-59 -44 q-16 33 -33 62.5 q-17 29.5 -34 54.5 l0 -162 q0 -35 -6 -56.5 q-6 -21.5 -18 -33.5 q-12 -12 -30 -17 q-18 -5 -41 -7 l-67 -5 l-30 109 l42 4 q24 2 30.5 15 q6.5 13 6.5 38 l0 188 l-142 0 l0 285 l378 0 l0 -285 l-123 0 l0 -63 l77 52 q17 -22 33.5 -48 q16.5 -26 32.5 -53 q15 32 25.5 66 q10.5 34 17.5 73 q7 39 11.5 84 q4.5 45 7.5 98 l-63 0 l0 113 l66 0 q1 23 1.5 53 q0.5 30 0.5 60 q0 30 0 55.5 q0 25.5 0 40.5 l109 -5 q0 -14 -0.5 -39 q-0.5 -25 -1 -54 q-0.5 -29 -1 -58.5 q-0.5 -29.5 -0.5 -52.5 l138 0 q-11 15 -26 32.5 q-15 17.5 -30.5 35.5 q-15.5 18 -31.5 34.5 q-16 16.5 -30 29.5 l74 70 q13 -12 30 -29 q17 -17 34 -35 q17 -18 33 -36 q16 -18 28 -33 l-71 -69 l86 0 l0 -113 l-235 0 q0 -7 -0.5 -13.5 q-0.5 -6.5 -0.5 -12.5 l109 -5 l0 -380 q0 -21 3 -30 q3 -9 15 -9 l12 0 q10 0 18 6 q8 6 10 24 q3 25 4.5 51 q1.5 26 1.5 46 l94 -25 ZM219 366 l157 0 l0 83 l-157 0 l0 -83 ZM234 208 q-11 -29 -24.5 -61.5 q-13.5 -32.5 -29.5 -65 q-16 -32.5 -32.5 -63 q-16.5 -30.5 -32.5 -56.5 l-97 53 q14 23 31 53.5 q17 30.5 33 62.5 q16 32 30 63 q14 31 23 55 l99 -41 Z" /><glyph glyph-name="uni5E94" unicode="&#x5e94;" d="M259 399 q0 -90 -5.5 -157 q-5.5 -67 -18.5 -123 q-13 -56 -34 -108 q-21 -52 -52 -111 l-120 55 q33 56 54.5 103 q21.5 47 35 96.5 q13.5 49.5 19 106.5 q5.5 57 5.5 134 l0 308 l329 0 l-22 103 l133 6 l21 -109 l306 0 l0 -118 l-651 0 l0 -104 l105 34 q14 -36 31 -84 q17 -48 33.5 -99 q16.5 -51 31.5 -100 q15 -49 25 -88 l-112 -41 q-10 40 -24 89.5 q-14 49.5 -29.5 100.5 q-15.5 51 -31.5 99 q-16 48 -29 83 l0 -76 ZM544 159 q-5 41 -14 90.5 q-9 49.5 -19 99 q-10 49.5 -21 94.5 q-11 45 -21 78 l116 23 q9 -32 19.5 -76 q10.5 -44 21 -92 q10.5 -48 19.5 -96 q9 -48 15 -88 l-116 -33 ZM931 57 l0 -119 l-702 0 l0 119 l388 0 q21 51 42 109.5 q21 58.5 40 119.5 q19 61 36 120.5 q17 59.5 29 112.5 l118 -32 q-12 -45 -28.5 -99.5 q-16.5 -54.5 -35.5 -112 q-19 -57.5 -38.5 -114 q-19.5 -56.5 -38.5 -104.5 l190 0 Z" /><glyph glyph-name="uni6240" unicode="&#x6240;" d="M932 358 l-112 0 l0 -443 l-120 0 l0 443 l-100 0 q-2 -80 -10.5 -142.5 q-8.5 -62.5 -27 -117.5 q-18.5 -55 -49.5 -106 q-31 -51 -78 -109 l-101 88 q46 51 75 93.5 q29 42.5 45.5 91 q16.5 48.5 22.5 111 q6 62.5 6 152.5 l0 306 q103 9 200 28.5 q97 19.5 171 45.5 l34 -125 q-59 -20 -135.5 -37 q-76.5 -17 -151.5 -26 l0 -129 l331 0 l0 -124 ZM226 184 q-3 -46 -9.5 -82 q-6.5 -36 -16.5 -68 q-10 -32 -24 -63.5 q-14 -31.5 -33 -68.5 l-126 51 q28 51 47.5 92.5 q19.5 41.5 31.5 90 q12 48.5 17 111.5 q5 63 5 156 l0 334 q94 10 174 24.5 q80 14.5 151 34.5 l29 -125 q-54 -16 -115 -28 q-61 -12 -125 -20 l0 -77 l205 0 l0 -362 l-211 0 ZM232 427 l0 -26 q0 -27 0 -51 q0 -24 -1 -47 l92 0 l0 124 l-91 0 Z" /><glyph glyph-name="uni6301" unicode="&#x6301;" d="M809 382 l0 -67 l94 0 l0 -118 l-94 0 l0 -142 q0 -46 -4.5 -75 q-4.5 -29 -19 -45.5 q-14.5 -16.5 -42.5 -24 q-28 -7.5 -74 -10.5 l-66 -5 l-38 116 l54 4 q22 1 34.5 4 q12.5 3 19 10.5 q6.5 7.5 8.5 22.5 q2 15 2 41 l0 104 l-179 0 q23 -20 48.5 -46.5 q25.5 -26.5 44.5 -50.5 l-85 -95 q-12 17 -27.5 36.5 q-15.5 19.5 -31.5 38 q-16 18.5 -31.5 34.5 q-15.5 16 -26.5 26 l58 57 l-83 0 l0 118 l313 0 l0 67 l-326 0 l0 122 l213 0 l0 70 l-176 0 l0 119 l176 0 l0 99 l122 -5 l0 -94 l180 0 l0 -119 l-180 0 l0 -70 l237 0 l0 -122 l-120 0 ZM355 300 q-29 -13 -67 -26 l0 -230 q0 -43 -4 -69.5 q-4 -26.5 -17.5 -41.5 q-13.5 -15 -39 -21.5 q-25.5 -6.5 -68.5 -10.5 l-56 -5 l-38 114 l54 5 q19 2 29.5 4.5 q10.5 2.5 15.5 10 q5 7.5 6 20.5 q1 13 1 36 l0 147 q-64 -20 -110 -33 l-24 123 q29 7 63.5 17 q34.5 10 70.5 21 l0 161 l-105 0 l0 115 l105 0 l0 150 l117 -3 l0 -147 l82 0 l0 -115 l-82 0 l0 -120 q14 6 27.5 11.5 q13.5 5.5 25.5 10.5 l6 -64 l8 -60 Z" /><glyph glyph-name="uni63A5" unicode="&#x63a5;" d="M932 393 l-395 0 l74 -19 l-18 -49 l317 0 l0 -106 l-88 0 q-16 -39 -33.5 -72 q-17.5 -33 -40.5 -61 q48 -21 94 -42.5 q46 -21.5 88 -41.5 l-51 -112 q-57 32 -112.5 60.5 q-55.5 28.5 -110.5 54.5 q-54 -34 -130.5 -62 q-76.5 -28 -188.5 -54 l-45 111 q76 17 133 32 q57 15 100 32 q-37 16 -73.5 31 q-36.5 15 -73.5 30 q26 44 50 94 l-89 0 l0 106 l136 0 q7 17 13 34 q6 17 11 34 l-149 0 l0 109 l116 0 l-16 110 l-84 0 l0 107 l205 0 l-18 75 l124 6 l17 -81 l194 0 l0 -107 l-79 0 l-18 -110 l141 0 l0 -109 ZM327 309 q-11 -4 -26 -9 q-15 -5 -32 -11 l0 -252 q0 -35 -4.5 -58.5 q-4.5 -23.5 -16.5 -38.5 q-12 -15 -32 -23.5 q-20 -8.5 -51 -11.5 l-64 -7 l-34 113 l51 7 q27 4 35 14 q8 10 8 35 l0 184 q-29 -11 -55.5 -20.5 q-26.5 -9.5 -45.5 -17.5 l-23 116 q25 8 57 18.5 q32 10.5 67 22.5 l0 149 l-89 0 l0 116 l89 0 l0 151 l108 -5 l0 -146 l74 0 l0 -116 l-74 0 l0 -109 q14 6 27.5 11.5 q13.5 5.5 25.5 10.5 l2 -55 l3 -68 ZM561 612 q4 -26 8 -54 q4 -28 8 -56 l102 0 q5 27 9 55 q4 28 8 55 l-135 0 ZM549 219 q-6 -11 -11.5 -22 q-5.5 -11 -10.5 -21 q49 -17 114 -44 q20 18 34.5 39.5 q14.5 21.5 27.5 47.5 l-154 0 Z" /><glyph glyph-name="uni652F" unicode="&#x652f;" d="M895 -128 q-138 35 -238 74.5 q-100 39.5 -175 88.5 q-73 -42 -167.5 -79.5 q-94.5 -37.5 -221.5 -78.5 l-59 130 q105 29 186.5 58.5 q81.5 29.5 145.5 60.5 q-42 42 -78 89.5 q-36 47.5 -69 104.5 l66 43 l-136 0 l0 122 l277 0 l0 82 l-352 0 l0 124 l352 0 l0 104 l132 -5 l0 -99 l348 0 l0 -124 l-348 0 l0 -82 l242 0 l0 -122 q-43 -78 -90 -138.5 q-47 -60.5 -111 -111.5 q66 -32 147.5 -58 q81.5 -26 185.5 -49 l-37 -134 ZM338 363 q29 -52 63 -95 q34 -43 79 -79 q62 41 102.5 83.5 q40.5 42.5 68.5 90.5 l-313 0 Z" /><glyph glyph-name="uni6613" unicode="&#x6613;" d="M874 356 q0 -6 -2 -30 q-2 -24 -4.5 -57 q-2.5 -33 -6 -69.5 q-3.5 -36.5 -6 -68.5 q-2.5 -32 -5 -54.5 q-2.5 -22.5 -2.5 -26.5 q-5 -38 -14 -61.5 q-9 -23.5 -26.5 -38 q-17.5 -14.5 -44 -21.5 q-26.5 -7 -66.5 -10 l-94 -8 l-36 114 l78 8 q25 3 40.5 5.5 q15.5 2.5 24.5 9 q9 6.5 13.5 18 q4.5 11.5 7.5 31.5 q3 20 6.5 43 q3.5 23 6.5 44 q3 21 5 38.5 q2 17.5 3 26.5 l-76 0 q-19 -59 -46.5 -109.5 q-27.5 -50.5 -66 -95.5 q-38.5 -45 -90 -85.5 q-51.5 -40.5 -118.5 -78.5 l-75 94 q58 32 102 62 q44 30 76 62.5 q32 32.5 55 69 q23 36.5 41 81.5 l-79 0 q-28 -49 -63 -90.5 q-35 -41.5 -79.5 -78 q-44.5 -36.5 -100.5 -70 q-56 -33.5 -126 -66.5 l-73 95 q115 47 190.5 99 q75.5 52 119.5 111 l-86 0 q-29 -29 -62 -57 q-33 -28 -71 -57 l-72 91 q57 36 103.5 80 q46.5 44 80.5 93 l-58 0 l0 374 l640 0 l0 -374 l-484 0 l31 -14 q-5 -8 -9.5 -15 q-4.5 -7 -9.5 -14 l528 0 ZM297 670 l0 -38 l402 0 l0 38 l-402 0 ZM699 501 l0 38 l-402 0 l0 -38 l402 0 Z" /><glyph glyph-name="uni666F" unicode="&#x666f;" d="M828 475 l-675 0 l0 294 l675 0 l0 -294 ZM266 685 l0 -30 l450 0 l0 30 l-450 0 ZM716 553 l0 32 l-450 0 l0 -32 l450 0 ZM910 337 l-839 0 l0 86 l352 0 l-9 41 l129 6 l9 -47 l358 0 l0 -86 ZM711 96 q24 -11 50.5 -23 q26.5 -12 53.5 -25 q27 -13 52.5 -25.5 q25.5 -12.5 48.5 -24.5 l-50 -97 q-26 15 -59 32.5 q-33 17.5 -67.5 35 q-34.5 17.5 -67 33 q-32.5 15.5 -57.5 25.5 l37 69 l-87 0 l0 -79 q0 -32 -5 -53.5 q-5 -21.5 -17.5 -34.5 q-12.5 -13 -34.5 -19.5 q-22 -6.5 -55 -9.5 l-75 -7 l-41 110 l57 7 q25 3 33.5 14 q8.5 11 8.5 38 l0 34 l-122 0 l44 -66 q-22 -14 -53 -30.5 q-31 -16.5 -66.5 -34 q-35.5 -17.5 -72 -34 q-36.5 -16.5 -68.5 -29.5 l-47 95 q53 18 111.5 45.5 q58.5 27.5 105.5 53.5 l-102 0 l0 212 l650 0 l0 -212 l-105 0 ZM281 184 l421 0 l0 40 l-421 0 l0 -40 Z" /><glyph glyph-name="uni6709" unicode="&#x6709;" d="M428 594 q-8 -16 -17 -31.5 q-9 -15.5 -19 -30.5 l436 0 l0 -498 q0 -40 -7 -65 q-7 -25 -22.5 -40 q-15.5 -15 -41.5 -22 q-26 -7 -65 -10 l-68 -6 l-42 117 l74 7 q16 1 25.5 4.5 q9.5 3.5 15 10.5 q5.5 7 7.5 19 q2 12 2 32 l-373 0 l0 -182 l-120 0 l0 411 q-49 -47 -109 -94 l-76 109 q74 54 138.5 121.5 q64.5 67.5 116.5 147.5 l-196 0 l0 118 l261 0 q11 23 20.5 46.5 q9.5 23.5 17.5 47.5 l130 -22 q-15 -38 -30 -72 l430 0 l0 -118 l-488 0 ZM706 422 l-373 0 l0 -64 l373 0 l0 64 ZM333 187 l373 0 l0 66 l-373 0 l0 -66 Z" /><glyph glyph-name="uni6D41" unicode="&#x6d41;" d="M329 466 q7 7 19.5 19.5 q12.5 12.5 27.5 28.5 q15 16 32.5 35 q17.5 19 34.5 39 l-132 0 l0 116 l196 0 l-22 91 l132 6 l18 -97 l245 0 l0 -116 l-284 0 q-18 -21 -37 -41 q-19 -20 -36 -37.5 q-17 -17.5 -32 -30.5 q-15 -13 -25 -19 q46 2 105 4 q59 2 116 4 q-14 17 -26 30.5 q-12 13.5 -20 21.5 l87 62 q13 -13 31.5 -32.5 q18.5 -19.5 40.5 -44 q22 -24.5 45.5 -54 q23.5 -29.5 46.5 -62.5 l-84 -83 q-17 27 -40 57 q-35 -2 -82.5 -3.5 q-47.5 -1.5 -97.5 -4 q-50 -2.5 -97 -4.5 q-47 -2 -82 -4 l-95 -5 l-31 101 q17 5 27 10.5 q10 5.5 19 12.5 ZM230 558 q-16 15 -40.5 35 q-24.5 20 -49 39.5 q-24.5 19.5 -45.5 35 q-21 15.5 -30 21.5 l68 96 q10 -8 32.5 -23.5 q22.5 -15.5 47.5 -34 q25 -18.5 48 -36 q23 -17.5 34 -29.5 l-65 -104 ZM201 328 q-27 23 -49.5 42 q-22.5 19 -43.5 35.5 q-21 16.5 -41 31 q-20 14.5 -41 29.5 l65 97 q17 -11 40 -26.5 q23 -15.5 47.5 -33.5 q24.5 -18 48 -37 q23.5 -19 40.5 -35 l-66 -103 ZM944 89 q-1 -14 -2 -28 q-2 -26 -5 -48 q-5 -33 -10.5 -53 q-5.5 -20 -15 -31.5 q-9.5 -11.5 -26.5 -17 q-17 -5.5 -45 -8.5 q-6 -1 -17.5 -1 q-11.5 0 -25.5 0 q-14 0 -29 0.5 q-15 0.5 -28 1.5 q-26 2 -40 10.5 q-14 8.5 -21 23 q-7 14.5 -8.5 35.5 q-1.5 21 -1.5 49 l0 305 l112 -6 l0 -275 q0 -19 2 -25 q2 -6 12 -8 q10 -2 24 0 q10 2 13.5 8.5 q3.5 6.5 5.5 24.5 q2 11 2.5 24 q0.5 13 1.5 24 q1 13 2 26 l100 -31 ZM198 -45 q53 39 81.5 72 q28.5 33 41 73 q12.5 40 14 93 q1.5 53 1.5 132 l113 -6 q0 -77 -2.5 -131.5 q-2.5 -54.5 -9 -93.5 q-6.5 -39 -18 -67 q-11.5 -28 -29.5 -51.5 q-18 -23.5 -43 -47 q-25 -23.5 -59 -54.5 l-90 81 ZM501 325 l114 -5 l0 -399 l-114 0 l0 404 ZM267 247 q-23 -80 -48.5 -163 q-25.5 -83 -65.5 -179 l-119 58 q42 83 72.5 166 q30.5 83 56.5 164 l104 -46 Z" /><glyph glyph-name="uni6D77" unicode="&#x6d77;" d="M856 244 q-2 -29 -2.5 -55.5 q-0.5 -26.5 -1.5 -50.5 l56 0 l0 -101 l-60 0 l0 -6 q-2 -39 -9.5 -63 q-7.5 -24 -23 -38 q-15.5 -14 -39.5 -20.5 q-24 -6.5 -58 -9.5 l-75 -7 l-34 103 l57 6 q28 3 41.5 10 q13.5 7 18.5 25 l-422 0 l22 207 l-48 0 q-4 -16 -12.5 -44 q-8.5 -28 -19 -62 q-10.5 -34 -22.5 -70 q-12 -36 -23 -68.5 q-11 -32.5 -20 -57.5 q-9 -25 -13 -35 l-116 43 q5 10 15 35 q10 25 22.5 58 q12.5 33 25.5 70 q13 37 24.5 71 q11.5 34 20.5 62 q9 28 12 42 l63 -25 l43 -16 l0 106 l60 0 l12 107 l-11 -11 l-80 88 q60 61 103.5 126.5 q43.5 65.5 71.5 131.5 l112 -17 q-5 -14 -11 -27.5 q-6 -13.5 -13 -27.5 l382 0 l0 -111 l-442 0 q-7 -11 -14 -22.5 q-7 -11.5 -15 -22.5 l434 0 q0 -4 -0.5 -22.5 q-0.5 -18.5 -2 -47.5 q-1.5 -29 -3 -66.5 q-1.5 -37.5 -2.5 -77.5 l80 0 l0 -109 l-83 0 ZM257 559 q-15 14 -37.5 33 q-22.5 19 -46.5 38 q-24 19 -47 36.5 q-23 17.5 -39 28.5 l68 94 q40 -29 85 -63 q45 -34 82 -66 l-65 -101 ZM213 338 q-17 16 -40 36 q-23 20 -47.5 40 q-24.5 20 -48 38 q-23.5 18 -40.5 29 l66 95 q17 -12 41 -29 q24 -17 48.5 -36 q24.5 -19 47.5 -37 q23 -18 38 -31 l-65 -105 ZM451 353 l140 0 q-20 17 -42 34 q-22 17 -39 31 l36 46 l-83 0 l-12 -111 ZM743 353 q2 42 3 72 q1 30 1 39 l-147 0 q24 -15 48 -32 q24 -17 44 -34 l-37 -45 l88 0 ZM428 138 l149 0 q-22 18 -45.5 36.5 q-23.5 18.5 -40.5 30.5 l31 39 l-83 0 l-11 -106 ZM733 138 q2 23 3 50 q1 27 2 56 l-146 0 q25 -16 48 -32 q23 -16 37 -28 l-38 -46 l94 0 Z" /><glyph glyph-name="uni7231" unicode="&#x7231;" d="M200 431 l-113 0 l0 152 l161 0 q-5 20 -10 41 q-5 21 -10 39 l-101 -3 l-6 97 q81 1 177.5 4.5 q96.5 3.5 193.5 8 q97 4.5 188 11 q91 6.5 162 14.5 l14 -101 l-62 -6 q-8 -23 -17.5 -50.5 q-9.5 -27.5 -19.5 -54.5 l136 0 l0 -152 l-115 0 l0 57 l-578 0 l0 -57 ZM644 583 q9 23 17.5 48.5 q8.5 25.5 16.5 48.5 l-120 -6 q5 -23 8.5 -45.5 q3.5 -22.5 6.5 -45.5 l71 0 ZM338 666 q6 -20 11.5 -41.5 q5.5 -21.5 10.5 -41.5 l99 0 q-3 22 -6.5 44 q-3.5 22 -7.5 42 l-107 -3 ZM895 -111 q-115 21 -201.5 46 q-86.5 25 -155.5 55 q-74 -33 -161 -60.5 q-87 -27.5 -191 -49.5 l-44 111 l-45 -38 l-73 84 q85 67 145.5 135.5 q60.5 68.5 99.5 146.5 l-152 0 l0 93 l189 0 q5 14 8.5 28 q3.5 14 7.5 28 l115 -10 q-2 -12 -5 -23.5 q-3 -11.5 -6 -22.5 l442 0 l0 -93 l-473 0 q-5 -11 -10 -22 q-5 -11 -10 -22 l449 0 l0 -88 q-34 -36 -73.5 -69 q-39.5 -33 -87.5 -62 q108 -31 273 -55 l-41 -112 ZM535 104 q39 18 70.5 37.5 q31.5 19.5 56.5 39.5 l-242 0 q24 -22 52 -41 q28 -19 63 -36 ZM144 -8 q79 13 146.5 29 q67.5 16 125.5 35 q-32 23 -60 48 q-28 25 -53 54 q-32 -42 -71.5 -82.5 q-39.5 -40.5 -87.5 -83.5 Z" /><glyph glyph-name="uni7528" unicode="&#x7528;" d="M869 758 l0 -711 q0 -45 -4.5 -73 q-4.5 -28 -19 -44 q-14.5 -16 -42 -23.5 q-27.5 -7.5 -73.5 -11.5 l-59 -6 l-42 124 l58 4 q19 1 30.5 4 q11.5 3 17.5 11.5 q6 8.5 7.5 23.5 q1.5 15 1.5 41 l0 66 l-186 0 l0 -236 l-124 0 l0 236 l-180 0 q-5 -38 -12.5 -71.5 q-7.5 -33.5 -19.5 -66 q-12 -32.5 -28.5 -65.5 q-16.5 -33 -37.5 -69 l-123 58 q29 49 48.5 86 q19.5 37 31 79 q11.5 42 16.5 97 q5 55 5 140 l0 407 l735 0 ZM261 634 l0 -115 l173 0 l0 115 l-173 0 ZM744 634 l-186 0 l0 -115 l186 0 l0 115 ZM434 288 l0 107 l-173 0 l0 -88 l0 -19 l173 0 ZM744 288 l0 107 l-186 0 l0 -107 l186 0 Z" /><glyph glyph-name="uni79CD" unicode="&#x79cd;" d="M903 167 l-190 0 l0 -257 l-114 0 l0 257 l-188 0 l0 83 l-60 -70 q-11 17 -26 38 q-15 21 -32 43 l0 -351 l-118 0 l0 294 q-18 -35 -38 -68.5 q-20 -33.5 -41 -64.5 l-76 92 q40 56 79.5 122.5 q39.5 66.5 69.5 135.5 l-104 0 l0 123 l110 0 l0 77 q-27 -5 -52.5 -8.5 q-25.5 -3.5 -47.5 -5.5 l-11 115 q33 5 73.5 12 q40.5 7 83 15.5 q42.5 8.5 83.5 17.5 q41 9 76 18 l19 -116 q-23 -7 -50 -13 q-27 -6 -56 -13 l0 -99 l93 0 l0 -123 l-93 0 l0 -57 l28 24 q18 -19 44 -49 q26 -30 46 -58 l0 362 l188 0 l0 153 l114 -5 l0 -148 l190 0 l0 -476 ZM599 290 l0 232 l-75 0 l0 -232 l75 0 ZM786 522 l-73 0 l0 -232 l73 0 l0 232 Z" /><glyph glyph-name="uni7AD9" unicode="&#x7ad9;" d="M696 535 l0 -144 l190 0 l0 -473 l-444 0 l0 473 l129 0 l0 399 l125 -5 l0 -131 l233 0 l0 -119 l-233 0 ZM453 538 l-382 0 l0 119 l122 0 l-24 117 l122 5 l22 -122 l140 0 l0 -119 ZM432 499 q-7 -31 -17 -75 q-10 -44 -21.5 -93 q-11.5 -49 -23.5 -100 q-12 -51 -23 -97 l71 13 l4 -53 l5 -64 q-11 -2 -40 -7 q-29 -5 -67 -11.5 q-38 -6.5 -80.5 -14.5 q-42.5 -8 -80.5 -14.5 q-38 -6.5 -67 -12.5 q-29 -6 -40 -8 l-14 120 q9 1 28.5 4.5 q19.5 3.5 46 8 q26.5 4.5 58 10 q31.5 5.5 63.5 10.5 l14 59 l-97 -20 q-5 31 -14 76.5 q-9 45.5 -19 93.5 q-10 48 -20 93 q-10 45 -18 75 l107 30 q7 -31 16.5 -70.5 q9.5 -39.5 18.5 -82 q9 -42.5 18 -84 q9 -41.5 16 -76.5 q9 43 18.5 87.5 q9.5 44.5 18.5 86.5 q9 42 16 78.5 q7 36.5 12 62.5 l111 -25 ZM764 270 l-202 0 l0 -233 l202 0 l0 233 Z" /><glyph glyph-name="uni7B49" unicode="&#x7b49;" d="M237 629 q-19 -27 -38.5 -53.5 q-19.5 -26.5 -42.5 -51.5 l-97 67 q49 53 85.5 110 q36.5 57 59.5 112 l123 -21 q-7 -14 -13.5 -29 q-6.5 -15 -14.5 -29 l194 0 l0 -62 q21 33 37 66.5 q16 33.5 30 72.5 l119 -17 q-12 -30 -27 -60 l252 0 l0 -105 l-140 0 q6 -16 12 -31 q6 -15 10 -26 l-105 -33 q-5 15 -14.5 41 q-9.5 26 -19.5 49 l-50 0 q-10 -18 -20 -34 q-10 -16 -19 -29 l-109 45 q4 5 7.5 9 q3.5 4 6.5 9 l-84 0 q8 -18 14.5 -35.5 q6.5 -17.5 11.5 -30.5 l-105 -29 q-6 18 -17 45 q-11 27 -20 50 l-26 0 ZM738 273 l0 -46 l137 0 l0 -106 l-137 0 l0 -88 q0 -38 -7 -61.5 q-7 -23.5 -25 -37.5 q-18 -14 -48.5 -20.5 q-30.5 -6.5 -77.5 -10.5 l-73 -6 l-37 105 l77 6 q23 2 36 4.5 q13 2.5 19 7.5 q6 5 7.5 14 q1.5 9 1.5 24 l0 63 l-281 0 q29 -18 57 -38 q28 -20 49 -37 l-62 -92 q-15 14 -36 31 q-21 17 -44 34 q-23 17 -45 32 q-22 15 -40 26 l34 44 l-147 0 l0 106 l515 0 l0 46 l-557 0 l0 102 l364 0 l0 46 l-284 0 l0 98 l284 0 l0 49 l131 -5 l0 -44 l288 0 l0 -98 l-288 0 l0 -46 l368 0 l0 -102 l-179 0 Z" /><glyph glyph-name="uni7EBF" unicode="&#x7ebf;" d="M944 119 q-5 -26 -10.5 -46.5 q-5.5 -20.5 -14.5 -50.5 q-22 -72 -54 -100.5 q-32 -28.5 -84 -28.5 q-20 0 -38.5 5.5 q-18.5 5.5 -36.5 19 q-18 13.5 -36.5 36 q-18.5 22.5 -39.5 57.5 l-12 21 q-72 -44 -158 -80 l-54 111 q98 37 166 77 q-11 35 -21.5 76 q-10.5 41 -19.5 89 l-114 -15 l-11 116 l107 14 q-2 16 -4 32 q-2 16 -4 33 l-66 -8 l-8 97 q-22 -42 -45.5 -84.5 q-23.5 -42.5 -45.5 -80.5 q-22 -38 -42 -67.5 q-20 -29.5 -34 -44.5 q14 2 31.5 6 q17.5 4 35.5 8 q18 4 34.5 8 q16.5 4 30.5 6 l1 -110 q-20 -5 -47.5 -11.5 q-27.5 -6.5 -57.5 -12.5 q-30 -6 -60 -12.5 q-30 -6.5 -55 -11.5 q-17 -4 -30 -8 q-13 -4 -22 -6 l-31 123 q27 8 39 16 q12 8 24 25 q28 35 74 111 q-26 -2 -50 -4 q-24 -2 -41 -4 l-40 -6 l-27 114 q16 8 24 13.5 q8 5.5 14 10.5 q8 7 24 31.5 q16 24.5 35 59.5 q19 35 39 76.5 q20 41.5 35 83.5 l106 -50 q-15 -27 -33.5 -60.5 q-18.5 -33.5 -36.5 -65 q-18 -31.5 -34.5 -57 q-16.5 -25.5 -26.5 -35.5 q16 1 34.5 1.5 q18.5 0.5 38.5 0.5 q14 29 28.5 58 q14.5 29 28.5 58 l97 -50 q-2 -4 -4 -8 q-2 -4 -4 -8 l56 7 q-2 22 -3.5 51 q-1.5 29 -2.5 57.5 q-1 28.5 -2 52.5 q-1 24 -2 37 l116 -3 q2 -18 4 -66 q2 -48 6 -114 l104 13 q-18 29 -41 60.5 q-23 31.5 -44 56.5 l79 60 q25 -27 48.5 -57.5 q23.5 -30.5 46.5 -65.5 l-62 -50 l129 16 l10 -111 l-261 -32 q2 -17 3.5 -33 q1.5 -16 3.5 -32 l267 34 l9 -114 l-104 -14 l71 -79 q-32 -43 -70.5 -83 q-38.5 -40 -83.5 -77 q5 -8 8.5 -15.5 q3.5 -7.5 8.5 -14.5 q14 -25 28.5 -34 q14.5 -9 22.5 -9 q18 0 25 12 q7 12 18 47 q8 23 11.5 41 q3.5 18 7.5 39 l99 -48 ZM644 320 q7 -32 13.5 -59.5 q6.5 -27.5 14.5 -52.5 q35 29 65 61.5 q30 32.5 59 70.5 l-152 -20 ZM63 66 q21 3 61.5 12 q40.5 9 87.5 20.5 q47 11.5 93.5 24.5 q46.5 13 78.5 24 l12 -110 q-13 -5 -37.5 -12.5 q-24.5 -7.5 -54 -16 q-29.5 -8.5 -62 -17.5 q-32.5 -9 -62 -16.5 q-29.5 -7.5 -53.5 -13.5 q-24 -6 -37 -8 l-27 113 Z" /><glyph glyph-name="uni7F51" unicode="&#x7f51;" d="M884 764 l0 -718 q0 -41 -6.5 -67 q-6.5 -26 -23 -41.5 q-16.5 -15.5 -45.5 -23.5 q-29 -8 -75 -13 l-63 -7 l-38 118 l70 8 q20 2 32.5 5 q12.5 3 19.5 9 q7 6 9.5 16 q2.5 10 2.5 26 l0 38 l-65 -48 q-14 30 -31.5 65 q-17.5 35 -36.5 73 q-26 -49 -55.5 -97 q-29.5 -48 -63.5 -96 l-93 67 q20 28 38.5 55.5 q18.5 27.5 35.5 56.5 l-83 -56 q-8 18 -16.5 37 q-8.5 19 -17.5 40 q-25 -49 -51.5 -93.5 q-26.5 -44.5 -54.5 -85.5 l-60 45 l0 -177 l-117 0 l0 864 l788 0 ZM213 149 q58 89 107 188 q-28 58 -55 111 q-27 53 -49 91 l90 55 q14 -26 32 -60 q18 -34 38 -72 q16 38 29.5 76.5 q13.5 38.5 26.5 78.5 l99 -37 q-5 -18 -11 -35.5 q-6 -17.5 -12 -34.5 l63 44 q27 -44 57 -100 q29 72 50 142 l89 -33 l0 84 l-554 0 l0 -498 ZM695 330 q20 -36 37.5 -72 q17.5 -36 34.5 -70 l0 340 q-30 -102 -72 -198 ZM506 206 q17 30 33.5 60.5 q16.5 30.5 32.5 60.5 q-22 42 -41.5 79 q-19.5 37 -36.5 66 q-13 -35 -26.5 -68.5 q-13.5 -33.5 -27.5 -65.5 l66 -132 Z" /><glyph glyph-name="uni827A" unicode="&#x827a;" d="M284 595 l-213 0 l0 119 l213 0 l0 81 l124 -5 l0 -76 l166 0 l0 81 l123 -5 l0 -76 l211 0 l0 -119 l-211 0 l0 -63 l-123 0 l0 63 l-166 0 l0 -63 l-124 0 l0 63 ZM917 147 q-2 -17 -6 -43.5 q-4 -26.5 -8 -49.5 q-6 -38 -18 -63.5 q-12 -25.5 -33.5 -41 q-21.5 -15.5 -55 -22.5 q-33.5 -7 -83.5 -9 q-234 -9 -467 0 q-79 3 -111.5 31.5 q-32.5 28.5 -32.5 82.5 q0 32 23 67.5 q23 35.5 77.5 78.5 q54.5 43 146 94.5 q91.5 51.5 228.5 114.5 l-408 0 l0 119 l641 0 l0 -119 q-127 -66 -217.5 -114.5 q-90.5 -48.5 -152.5 -84 q-62 -35.5 -99.5 -59.5 q-37.5 -24 -57.5 -39.5 q-20 -15.5 -26 -24.5 q-6 -9 -6 -15 q0 -9 10 -11.5 q10 -2.5 25 -3.5 q203 -7 407 0 q24 1 39 4 q15 3 24 9.5 q9 6.5 13.5 19 q4.5 12.5 7.5 32.5 q3 21 6.5 47.5 q3.5 26.5 5.5 43.5 l128 -44 Z" /><glyph glyph-name="uni89E3" unicode="&#x89e3;" d="M931 74 l-155 0 l0 -167 l-108 0 l0 167 l-155 0 l0 110 l155 0 l0 74 l-62 0 q-11 -35 -27 -73 l-91 32 l0 -221 q0 -27 -3.5 -43.5 q-3.5 -16.5 -12.5 -26.5 q-9 -10 -24 -14.5 q-15 -4.5 -39 -7.5 l-43 -5 l-28 91 l0 -39 l-92 0 l0 173 l-51 0 q-8 -72 -27 -124.5 q-19 -52.5 -47 -105.5 l-100 48 q22 44 37 79.5 q15 35.5 24.5 75 q9.5 39.5 13.5 89.5 q4 50 4 124 l0 159 l-81 61 q57 63 106.5 132 q49.5 69 84.5 144 l110 -20 q-6 -14 -12.5 -28 q-6.5 -14 -12.5 -28 l169 0 l0 -96 l-54 -67 l78 0 l0 -62 q25 20 40.5 37 q15.5 17 25 34 q9.5 17 15 35.5 q5.5 18.5 11.5 41.5 l-71 0 l0 107 l395 0 q-1 -18 -3 -49 q-2 -31 -4.5 -62.5 q-2.5 -31.5 -4 -57.5 q-1.5 -26 -2.5 -34 q-2 -31 -8.5 -51 q-6.5 -20 -20 -31.5 q-13.5 -11.5 -35 -17 q-21.5 -5.5 -54.5 -8.5 l-52 -4 l-33 105 l42 4 q16 2 25.5 4 q9.5 2 14.5 6.5 q5 4.5 7.5 11.5 q2.5 7 3.5 18 q2 16 4 33 q2 17 3 26 l-93 0 q-1 -8 -2 -16 q-1 -8 -3 -16 q-11 -57 -40.5 -101.5 q-29.5 -44.5 -80.5 -89.5 l73 -19 q-2 -11 -4 -21 q-2 -10 -4 -21 l35 0 l0 60 l108 -5 l0 -55 l122 0 l0 -111 l-122 0 l0 -74 l155 0 l0 -110 ZM241 627 q-10 -16 -19 -31 q-9 -15 -20 -29 l81 0 l46 60 l-88 0 ZM202 398 l44 0 l0 65 l-44 0 l0 -65 ZM338 398 l48 0 l0 65 l-48 0 l0 -65 ZM488 237 q18 41 32 86 q14 45 25 88 q-2 -3 -8 -7 l-49 57 l0 -224 ZM246 229 l0 62 l-44 0 l0 -27 l0 -35 l44 0 ZM338 291 l0 -62 l48 0 l0 62 l-48 0 ZM361 4 q17 3 21 8.5 q4 5.5 4 19.5 l0 92 l-48 0 l0 -124 l23 4 Z" /><glyph glyph-name="uni8BBF" unicode="&#x8bbf;" d="M577 552 l-3 -101 l293 0 q-2 -32 -4.5 -80.5 q-2.5 -48.5 -5.5 -102.5 q-3 -54 -5.5 -108 q-2.5 -54 -5.5 -96 q-2 -45 -10.5 -72 q-8.5 -27 -26.5 -42 q-18 -15 -48.5 -22 q-30.5 -7 -76.5 -12 l-57 -6 l-43 124 l61 6 q24 2 39 5 q15 3 23.5 10 q8.5 7 12 18.5 q3.5 11.5 5.5 30.5 q0 2 1 18 q1 16 2.5 40 q1.5 24 3 51.5 q1.5 27.5 3 51.5 q1.5 24 2 40.5 q0.5 16.5 0.5 19.5 l-169 0 q-5 -74 -16.5 -132.5 q-11.5 -58.5 -31.5 -109.5 q-20 -51 -50 -97.5 q-30 -46.5 -72 -95.5 l-103 81 q50 54 79 101 q29 47 44 101 q15 54 21 123.5 q6 69.5 9 169.5 q1 10 1.5 35 q0.5 25 1.5 51 l-104 0 l0 127 l223 0 l-26 111 l133 6 l25 -117 l227 0 l0 -127 l-352 0 ZM228 534 q-11 16 -28 40 q-17 24 -36.5 50 q-19.5 26 -39 50 q-19.5 24 -35.5 41 l93 70 q16 -15 34 -34.5 q18 -19.5 36.5 -42 q18.5 -22.5 36 -46 q17.5 -23.5 32.5 -45.5 l-93 -83 ZM390 106 q-12 -10 -29 -25 q-17 -15 -36 -32 q-19 -17 -37 -34 q-18 -17 -32 -29 q-10 -11 -20.5 -21.5 q-10.5 -10.5 -20.5 -21.5 l-76 98 q14 15 16.5 30 q2.5 15 2.5 36 l0 271 l-101 0 l0 126 l220 0 l0 -349 q19 15 42.5 35 q23.5 20 38.5 34 l32 -118 Z" /><glyph glyph-name="uni8DEF" unicode="&#x8def;" d="M890 269 q-11 4 -20.5 7 q-9.5 3 -19.5 7 l0 -353 l-409 0 l0 341 q-3 -2 -6 -2.5 q-3 -0.5 -6 -2.5 l-21 57 l0 -104 l-83 0 l0 -118 q32 5 55 9 q23 4 33 6 l0 -58 l2 -63 q-9 -1 -37 -5.5 q-28 -4.5 -66 -10 q-38 -5.5 -81.5 -12 q-43.5 -6.5 -81.5 -12.5 q-38 -6 -66.5 -10.5 q-28.5 -4.5 -36.5 -5.5 l-15 118 l42 6 l0 320 l102 -5 l0 -300 l44 6 l0 349 l-133 0 l0 337 l314 0 l0 -177 q43 48 83 107.5 q40 59.5 63 116.5 l106 -34 q-5 -12 -10.5 -24 q-5.5 -12 -11.5 -24 l245 0 l0 -109 q-24 -46 -55.5 -89 q-31.5 -43 -73.5 -82 q40 -23 86.5 -41 q46.5 -18 101.5 -34 l-44 -111 ZM192 546 l104 0 l0 112 l-104 0 l0 -112 ZM569 628 l0 -1 q37 -63 88 -109 q29 24 53 51 q24 27 46 59 l-187 0 ZM389 375 q51 19 95.5 38.5 q44.5 19.5 82.5 42.5 q-18 18 -34.5 38.5 q-16.5 20.5 -31.5 43.5 q-24 -27 -51 -54 l-50 69 l0 -120 l-75 0 l0 -102 l80 0 l-16 44 ZM840 287 q-54 20 -99.5 43 q-45.5 23 -85.5 51 q-73 -51 -173 -94 l358 0 ZM739 178 l-188 0 l0 -137 l188 0 l0 137 Z" /><glyph glyph-name="uni8F7D" unicode="&#x8f7d;" d="M937 108 q-5 -27 -10 -53 q-5 -26 -14 -56 q-11 -37 -24.5 -59 q-13.5 -22 -28.5 -33.5 q-15 -11.5 -31 -15 q-16 -3.5 -34 -3.5 q-38 0 -70 25 q-32 25 -62 88 q-3 6 -5.5 12 q-2.5 6 -5.5 12 q-26 -27 -55 -54 q-29 -27 -62 -56 l-82 92 q8 5 14.5 10.5 q6.5 5.5 14.5 11.5 l-78 -6 l0 -116 l-116 0 l0 108 q-35 -3 -69 -5.5 q-34 -2.5 -62.5 -4.5 q-28.5 -2 -50.5 -4 q-22 -2 -34 -3 l-7 103 q9 0 31 1.5 q22 1.5 52 4 q30 2.5 66 5 q36 2.5 74 5.5 l0 46 l-189 0 l0 95 q12 16 24 32.5 q12 16.5 23 33.5 l-61 0 l0 103 l123 0 q6 11 11 21 q5 10 10 19 l-177 0 l0 108 l215 0 l0 45 l-152 0 l0 103 l152 0 l0 74 l115 -5 l0 -69 l143 0 l0 -103 l-143 0 l0 -45 l173 0 q0 8 -0.5 16.5 q-0.5 8.5 -0.5 16.5 q-1 31 -2 61.5 q-1 30.5 -2 56.5 q-1 26 -1.5 46.5 q-0.5 20.5 -0.5 31.5 l113 -5 q1 -22 3.5 -78.5 q2.5 -56.5 6.5 -133.5 q0 -8 1 -12 l124 0 q-15 17 -33.5 36.5 q-18.5 19.5 -37 38 q-18.5 18.5 -34.5 34.5 q-16 16 -26 26 l75 75 q10 -10 27.5 -26 q17.5 -16 37.5 -35 q20 -19 40.5 -39 q20.5 -20 37.5 -37 l-70 -73 l111 0 l0 -108 l-245 0 q10 -110 27 -196 q26 42 46.5 87.5 q20.5 45.5 37.5 98.5 l99 -42 q-34 -85 -69 -153.5 q-35 -68.5 -79 -129.5 q6 -17 12 -32 q6 -15 12 -29 q10 -22 16 -30 q6 -8 13 -8 q6 0 13.5 8 q7.5 8 12.5 28 q5 20 8.5 39 q3.5 19 7.5 42 l101 -42 ZM539 76 q20 17 38.5 35 q18.5 18 35.5 37 q-17 66 -29.5 146 q-12.5 80 -20.5 173 l-215 0 l8 -1 q-5 -11 -9.5 -20.5 q-4.5 -9.5 -9.5 -18.5 l208 0 l0 -103 l-264 0 q-11 -17 -22 -33.5 q-11 -16.5 -22 -31.5 l51 0 l0 41 l116 -5 l0 -36 l130 0 l0 -96 l-130 0 l0 -38 l133 10 l2 -59 Z" /><glyph glyph-name="uni8FDE" unicode="&#x8fde;" d="M339 455 q20 26 40.5 61 q20.5 35 41.5 77 l-89 0 l0 114 l140 0 q11 25 20 49.5 q9 24.5 17 47.5 l123 -14 q-6 -19 -14 -39.5 q-8 -20.5 -17 -43.5 l294 0 l0 -114 l-342 0 q-20 -42 -39.5 -78 q-19.5 -36 -36.5 -59 l90 0 l0 106 l122 -3 l0 -103 l180 0 l0 -114 l-180 0 l0 -81 l223 0 l0 -116 l-223 0 l0 -88 l-122 0 l0 88 l-261 0 l0 116 l261 0 l0 81 l-228 0 l0 113 ZM220 521 q-10 18 -27 44.5 q-17 26.5 -35.5 55 q-18.5 28.5 -37 54 q-18.5 25.5 -31.5 42.5 l97 71 q13 -15 30 -37.5 q17 -22.5 35 -48 q18 -25.5 35.5 -51 q17.5 -25.5 30.5 -45.5 l-97 -85 ZM590 30 q87 -2 178 1 q91 3 169 8 l-27 -122 q-31 -1 -73.5 -2.5 q-42.5 -1.5 -85 -2 q-42.5 -0.5 -81 -1 q-38.5 -0.5 -61.5 0.5 q-72 2 -125.5 3.5 q-53.5 1.5 -98.5 11 q-45 9.5 -85.5 30.5 q-40.5 21 -85.5 62 q-21 -27 -42.5 -50.5 q-21.5 -23.5 -56.5 -58.5 l-83 89 q37 35 69 68 q32 33 56 62 l0 239 l-86 0 l0 120 l208 0 l0 -384 q35 -27 67.5 -41.5 q32.5 -14.5 68.5 -21 q36 -6.5 78 -8.5 q42 -2 97 -3 Z" /><glyph glyph-name="uni901F" unicode="&#x901f;" d="M533 610 l-222 0 l0 111 l222 0 l0 74 l118 -5 l0 -69 l227 0 l0 -111 l-227 0 l0 -40 l213 0 l0 -269 l-213 0 l0 -85 l62 79 q39 -22 87.5 -55 q48.5 -33 93.5 -69 l-62 -106 q-49 45 -97 82 q-48 37 -84 58 l0 -147 l-118 0 l0 143 q-39 -42 -84.5 -78 q-45.5 -36 -94.5 -65 l-69 103 q56 26 110 62 q54 36 96 78 l-166 0 l0 269 l208 0 l0 40 ZM195 533 q-9 20 -23.5 46.5 q-14.5 26.5 -30.5 53 q-16 26.5 -32 50 q-16 23.5 -28 37.5 l96 59 q13 -16 28.5 -38 q15.5 -22 31 -46.5 q15.5 -24.5 30 -49 q14.5 -24.5 25.5 -45.5 l-97 -67 ZM584 24 q43 -1 89 -0.5 q46 0.5 91.5 1.5 q45.5 1 89.5 2.5 q44 1.5 83 4.5 l-31 -115 q-31 -2 -70.5 -3 q-39.5 -1 -81 -2 q-41.5 -1 -81 -1 q-39.5 0 -70.5 1 q-72 2 -126 4 q-54 2 -99 11 q-45 9 -85.5 29 q-40.5 20 -86.5 59 q-10 -13 -20 -24.5 q-10 -11.5 -21.5 -23.5 q-11.5 -12 -25 -26 q-13.5 -14 -30.5 -31 l-81 87 q35 35 67 67.5 q32 32.5 56 61.5 l0 244 l-88 0 l0 123 l204 0 l0 -397 q36 -27 69 -41.5 q33 -14.5 69 -21 q36 -6.5 79 -7.5 q43 -1 100 -2 ZM434 400 l99 0 l0 71 l-99 0 l0 -71 ZM651 471 l0 -71 l102 0 l0 71 l-102 0 Z" /><glyph glyph-name="uni9177" unicode="&#x9177;" d="M924 453 l0 -118 l-409 0 l0 118 l156 0 l0 94 l-73 0 q-6 -20 -12.5 -39.5 q-6.5 -19.5 -13.5 -38.5 l-81 36 l0 -576 l-409 0 l0 651 l109 0 l0 71 l-136 0 l0 112 l443 0 l0 -112 l-116 0 l0 -71 l109 0 l0 -50 q20 51 37 113 q17 62 25 122 l90 -15 q-3 -21 -6 -41.5 q-3 -20.5 -8 -40.5 l42 0 l0 126 l109 -5 l0 -121 l125 0 l0 -121 l-125 0 l0 -94 l144 0 ZM272 580 l31 0 l0 71 l-31 0 l0 -71 ZM167 466 l0 -157 q9 16 15.5 31.5 q6.5 15.5 10.5 33.5 q4 18 5.5 39.5 q1.5 21.5 1.5 49.5 l0 3 l-33 0 ZM272 435 q0 -37 -2.5 -65 q-2.5 -28 -9.5 -51.5 q-7 -23.5 -18 -46 q-11 -22.5 -28 -49.5 l-47 26 l0 -50 l238 0 l0 47 l-36 0 q-41 0 -53.5 18.5 q-12.5 18.5 -12.5 62.5 l0 139 l-31 0 l0 -31 ZM405 466 l-31 0 l0 -102 q0 -17 7.5 -23.5 q7.5 -6.5 23.5 -7.5 l0 133 ZM537 284 l358 0 l0 -362 l-358 0 l0 362 ZM639 38 l150 0 l0 127 l-150 0 l0 -127 ZM405 36 l0 65 l-238 0 l0 -65 l238 0 Z" /><glyph glyph-name="uni952E" unicode="&#x952e;" d="M654 29 q69 -3 138.5 -2.5 q69.5 0.5 138.5 4.5 l-18 -97 q-135 -9 -269 -3 q-64 3 -119.5 21.5 q-55.5 18.5 -101.5 70.5 q-15 -28 -33 -55.5 q-18 -27.5 -40 -57.5 l-82 72 q30 33 57 71 q-7 -5 -21.5 -15.5 q-14.5 -10.5 -32 -23.5 q-17.5 -13 -35 -26.5 q-17.5 -13.5 -30.5 -25.5 q-13 -12 -25 -23 q-12 -11 -22 -20 l-58 92 q17 14 21.5 24.5 q4.5 10.5 4.5 31.5 l0 159 l-70 0 l0 105 l70 0 l0 85 l-30 0 l0 74 l-4 -6 l-78 68 q45 63 75.5 127 q30.5 64 51.5 127 l99 -21 q-8 -23 -16 -44.5 q-8 -21.5 -17 -43.5 l108 0 l0 -105 l-159 0 q-9 -17 -19.5 -34.5 q-10.5 -17.5 -21.5 -36.5 l170 0 l0 -105 l-60 0 l0 -85 l67 0 l0 -105 l-67 0 l0 -127 q16 13 33.5 28 q17.5 15 31.5 28 l36 -99 q20 32 35 62 q-16 35 -29.5 77 q-13.5 42 -24.5 95 l83 21 q4 -17 7.5 -33.5 q3.5 -16.5 8.5 -32.5 q15 64 18 134 l-115 0 l0 100 l103 164 l-76 0 l0 101 l182 0 l0 -102 l-101 -163 l103 0 l0 -103 q-11 -78 -23 -140 q-12 -62 -33 -119 q30 -40 75 -62.5 q45 -22.5 114 -25.5 ZM639 506 l-113 0 l0 89 l113 0 l0 43 l-89 0 l0 89 l89 0 l0 68 l94 -4 l0 -64 l146 0 l0 -132 l35 0 l0 -89 l-35 0 l0 -133 l-146 0 l0 -40 l143 0 l0 -89 l-143 0 l0 -39 l166 0 l0 -89 l-166 0 l0 -65 l-94 0 l0 65 l-122 0 l0 89 l122 0 l0 39 l-92 0 l0 89 l92 0 l0 40 l-90 0 l0 90 l90 0 l0 43 ZM733 595 l56 0 l0 43 l-56 0 l0 -43 ZM789 506 l-56 0 l0 -43 l56 0 l0 43 Z" /><glyph glyph-name="uni95EE" unicode="&#x95ee;" d="M208 809 q38 -38 75 -79 q37 -41 59 -77 l-91 -87 q-26 43 -61.5 87 q-35.5 44 -67.5 78 l86 78 ZM895 51 q0 -42 -7.5 -69.5 q-7.5 -27.5 -25.5 -44 q-18 -16.5 -47 -24 q-29 -7.5 -72 -11.5 l-67 -6 l-39 122 l67 6 q21 2 33.5 5 q12.5 3 19 10 q6.5 7 9 17.5 q2.5 10.5 2.5 27.5 l0 540 l-406 0 l0 128 l533 0 l0 -701 ZM217 -100 l-128 0 l0 696 l128 -4 l0 -692 ZM693 103 l-403 0 l0 425 l403 0 l0 -425 ZM570 221 l0 193 l-158 0 l0 -193 l158 0 Z" /><glyph glyph-name="uni9650" unicode="&#x9650;" d="M310 450 q11 -23 22.5 -44.5 q11.5 -21.5 21 -48.5 q9.5 -27 15.5 -63.5 q6 -36.5 6 -88.5 q0 -44 -6 -69.5 q-6 -25.5 -17.5 -39 q-11.5 -13.5 -26.5 -19 q-15 -5.5 -33 -8.5 l-53 -10 l-42 115 l38 8 q20 4 29.5 16.5 q9.5 12.5 8.5 47.5 q-2 54 -25.5 101.5 q-23.5 47.5 -50.5 90.5 q20 51 40.5 106.5 q20.5 55.5 31.5 109.5 l-80 0 l0 -749 l-108 0 l0 867 l294 0 l0 -118 q-12 -58 -28.5 -106.5 q-16.5 -48.5 -36.5 -97.5 ZM770 127 q35 -34 78.5 -61 q43.5 -27 99.5 -50 l-68 -103 q-63 36 -114.5 74.5 q-51.5 38.5 -91.5 84.5 q-40 46 -70 102.5 q-30 56.5 -51 127.5 l-38 0 l0 -252 q15 6 31.5 13 q16.5 7 34 14.5 q17.5 7.5 33.5 14.5 q16 7 30 13 l26 -104 q-5 -3 -20 -10 q-15 -7 -36.5 -16 q-21.5 -9 -46.5 -20 q-25 -11 -49 -22 q-30 -14 -52.5 -26 q-22.5 -12 -38.5 -18 l-52 105 q21 8 25.5 18 q4.5 10 4.5 33 l0 724 l460 0 l0 -467 l-19 0 l58 -73 q-30 -26 -65.5 -53.5 q-35.5 -27.5 -68.5 -48.5 ZM515 663 l0 -70 l236 0 l0 70 l-236 0 ZM515 409 l236 0 l0 75 l-236 0 l0 -75 ZM660 302 q11 -28 22.5 -52 q11.5 -24 25.5 -46 q32 21 63 46 q31 25 57 52 l-168 0 Z" /><glyph glyph-name="uni9664" unicode="&#x9664;" d="M782 226 q18 -21 40 -48.5 q22 -27.5 43.5 -56.5 q21.5 -29 40 -57.5 q18.5 -28.5 30.5 -50.5 l-91 -71 q-11 19 -29 48.5 q-18 29.5 -39 61 q-21 31.5 -42.5 61 q-21.5 29.5 -37.5 48.5 l78 65 l-89 0 l0 -217 q0 -33 -6 -52.5 q-6 -19.5 -18.5 -30 q-12.5 -10.5 -32.5 -15.5 q-20 -5 -47 -8 l-57 -7 l-36 113 l43 5 q27 3 35 12 q8 9 8 33 l0 167 l-113 0 l88 -51 q-27 -60 -65 -122.5 q-38 -62.5 -80 -114.5 l-90 63 q19 21 39 47.5 q20 26.5 38 56.5 q18 30 34.5 61 q16.5 31 29.5 60 l-59 0 l0 120 l178 0 l0 67 l-111 0 l0 53 q-14 -13 -29 -25.5 q-15 -12.5 -32 -25.5 l-66 91 q-5 -19 -11 -37 q-6 -18 -12 -36 q18 -33 30.5 -62 q12.5 -29 21 -56 q8.5 -27 12.5 -54 q4 -27 4 -56 q0 -48 -8.5 -77.5 q-8.5 -29.5 -23 -46.5 q-14.5 -17 -35 -23.5 q-20.5 -6.5 -44.5 -9.5 l-29 -3 l-39 110 l33 5 q13 2 21.5 5.5 q8.5 3.5 13 11 q4.5 7.5 6 19.5 q1.5 12 1.5 31 q0 35 -11 84 q-11 49 -53 106 q15 52 29.5 106.5 q14.5 54.5 24.5 114.5 l-71 0 l0 -738 l-110 0 l0 856 l286 0 l0 -119 q-8 -31 -16 -60 q-8 -29 -16 -57 q80 59 140 128 q60 69 102 160 l97 0 q22 -41 53 -81.5 q31 -40.5 68 -78.5 q37 -38 78 -74 q41 -36 84 -67 l-81 -95 q-22 17 -43.5 35 q-21.5 18 -42.5 37 l0 -71 l-110 0 l0 -67 l201 0 l0 -120 l-105 0 ZM636 668 q-22 -35 -48.5 -70 q-26.5 -35 -59.5 -70 l222 0 q-36 36 -65.5 72 q-29.5 36 -48.5 68 Z" /><glyph glyph-name="uni97F3" unicode="&#x97f3;" d="M925 514 l0 -111 l-866 0 l0 111 l218 0 l-23 98 l-139 0 l0 111 l316 0 l-17 72 l134 6 l17 -78 l305 0 l0 -111 l-129 0 l-27 -98 l211 0 ZM405 514 l178 0 l24 98 l-224 0 l22 -98 ZM160 356 l666 0 l0 -439 l-666 0 l0 439 ZM286 242 l0 -53 l413 0 l0 53 l-413 0 ZM699 27 l0 54 l-413 0 l0 -54 l413 0 Z" /></font>
</defs>
</svg>
